<svg xmlns="http://www.w3.org/2000/svg" width="24" height="24" viewBox="0 0 24 24" fill="none">
  <path d="M20.504 15.744C19.8923 15.4822 19.3712 15.046 19.0059 14.4899C18.6406 13.9338 18.4472 13.2823 18.45 12.617C18.4577 12.0229 18.6166 11.4406 18.9118 10.9249C19.2069 10.4093 19.6286 9.97741 20.137 9.66995C20.252 9.59889 20.3514 9.50524 20.4292 9.39466C20.507 9.28409 20.5616 9.15888 20.5896 9.02662C20.6177 8.89435 20.6186 8.75778 20.5924 8.62514C20.5661 8.49251 20.5133 8.36657 20.437 8.25495C19.9799 7.59057 19.3842 7.03327 18.6909 6.62151C17.9975 6.20975 17.2231 5.95333 16.421 5.86995C17.1677 4.68499 17.5066 3.28838 17.386 1.89295C17.3626 1.63955 17.2419 1.40507 17.0493 1.23875C16.8567 1.07243 16.6071 0.987198 16.353 1.00095C14.6356 1.15381 13.0436 1.96379 11.909 3.26195C11.1895 4.09545 10.6818 5.09028 10.429 6.16195C9.90688 5.98503 9.36021 5.89122 8.80899 5.88395C7.78857 5.91299 6.79297 6.20518 5.9187 6.7322C5.04443 7.25921 4.32115 8.00317 3.81899 8.89195C1.92999 12.169 3.08599 17.08 5.12999 20.037C5.94999 21.221 7.18099 22.999 9.03799 22.999C9.07499 22.999 9.11199 22.999 9.14799 22.997C9.77028 22.962 10.3796 22.8047 10.941 22.534C11.3894 22.3065 11.8842 22.1853 12.387 22.18C12.8594 22.1858 13.324 22.3015 13.744 22.518C14.3579 22.8084 15.0269 22.9639 15.706 22.974C17.619 22.938 18.749 21.2869 19.574 20.0809C20.2252 19.1231 20.7347 18.0763 21.087 16.9729C21.1622 16.7321 21.1439 16.4717 21.0357 16.2437C20.9274 16.0157 20.7372 15.8369 20.503 15.743L20.504 15.744ZM13.424 4.56795C13.9491 3.98059 14.6071 3.52732 15.343 3.24595C15.1816 4.03775 14.8252 4.77675 14.306 5.39595C13.9537 5.81915 13.5249 6.1723 13.042 6.43695L13.039 6.43795L12.954 6.47195C12.768 6.54495 12.537 6.63595 12.359 6.69495C12.5306 5.90828 12.8974 5.17707 13.424 4.56795ZM17.924 18.9529C17.121 20.1259 16.489 20.959 15.67 20.974C15.2749 20.9725 14.8864 20.8721 14.54 20.6819C13.8694 20.3552 13.1339 20.1837 12.388 20.18C11.6162 20.1839 10.8549 20.3591 10.159 20.693C9.82066 20.8654 9.4516 20.9694 9.07299 20.999H9.04299C8.22999 20.999 7.35599 19.737 6.77499 18.898C5.32299 16.798 3.98299 12.615 5.55199 9.88995C5.881 9.3004 6.35681 8.80589 6.93326 8.45442C7.50971 8.10294 8.16721 7.90643 8.84199 7.88395H8.87599C9.44555 7.93212 10.0018 8.08252 10.518 8.32795C10.648 8.37895 10.778 8.43095 10.907 8.47795C10.9395 8.49268 10.9729 8.50538 11.007 8.51595C11.3631 8.65908 11.7414 8.73927 12.125 8.75295C12.6677 8.7101 13.1978 8.56773 13.689 8.33295C14.381 7.99674 15.1417 7.82624 15.911 7.83495C16.7339 7.86739 17.5238 8.16721 18.161 8.68895C17.6165 9.19086 17.183 9.80111 16.8883 10.4805C16.5936 11.1599 16.4443 11.8934 16.45 12.634V12.635C16.4442 13.5315 16.6659 14.4148 17.0943 15.2024C17.5228 15.9899 18.1441 16.6559 18.9 17.138C18.6371 17.7743 18.3094 18.3824 17.924 18.9529Z" fill="#ED8A37"/>
</svg>