<svg width="24" height="24" viewBox="0 0 24 24" fill="none" xmlns="http://www.w3.org/2000/svg">
<g clip-path="url(#clip0_373_3457)">
<path d="M10 11.3334H12V12.6667H10V11.3334Z" fill="#2D3536"/>
<path d="M17.632 9.44662C16.4497 7.51182 14.8367 5.87603 12.9187 4.66662C12.0326 4.10504 11.0226 3.76891 9.9767 3.68757C8.93082 3.60622 7.88094 3.78213 6.9187 4.19995C6.07703 4.59695 5.34466 5.19286 4.78482 5.93622C4.22497 6.67958 3.85449 7.54805 3.70536 8.46662C3.65203 8.77995 3.61203 9.07995 3.57203 9.37328C2.94786 9.47445 2.37995 9.79412 1.96965 10.2752C1.55935 10.7564 1.33337 11.3676 1.33203 12V16.0866C1.33203 16.4402 1.47251 16.7794 1.72256 17.0294C1.9726 17.2795 2.31174 17.42 2.66536 17.42V12C2.66536 11.6463 2.80584 11.3072 3.05589 11.0571C3.30594 10.8071 3.64508 10.6666 3.9987 10.6666H16.4854C17.7702 10.6684 19.002 11.1796 19.9105 12.0881C20.8191 12.9967 21.3303 14.2284 21.332 15.5133V16H19.9987C19.7171 15.3134 19.1926 14.7545 18.5253 14.4299C17.8579 14.1054 17.0945 14.0379 16.3805 14.2404C15.6666 14.4429 15.0522 14.9011 14.6546 15.5277C14.257 16.1542 14.104 16.9053 14.2248 17.6375C14.3456 18.3696 14.7318 19.0317 15.3096 19.4973C15.8874 19.963 16.6165 20.1995 17.3576 20.1619C18.0987 20.1243 18.8 19.8151 19.3278 19.2934C19.8555 18.7717 20.1726 18.0739 20.2187 17.3333H21.332C21.6857 17.3333 22.0248 17.1928 22.2748 16.9428C22.5249 16.6927 22.6654 16.3536 22.6654 16V15.5133C22.6627 14.0746 22.1587 12.6818 21.24 11.5745C20.3214 10.4673 19.0455 9.71482 17.632 9.44662ZM7.33203 9.33328H4.6187C4.6187 9.12662 4.6787 8.91328 4.7187 8.66662C4.83388 7.93426 5.13446 7.24353 5.59187 6.66009C6.04928 6.07666 6.64832 5.61992 7.33203 5.33328V9.33328ZM8.66536 9.33328V5.05328C9.91 4.89166 11.1723 5.16483 12.2387 5.82662C13.6945 6.7334 14.951 7.9264 15.932 9.33328H8.66536ZM17.1987 18.92C16.8691 18.92 16.5468 18.8222 16.2727 18.6391C15.9987 18.4559 15.785 18.1956 15.6589 17.8911C15.5328 17.5865 15.4997 17.2514 15.5641 16.9281C15.6284 16.6048 15.7871 16.3079 16.0202 16.0748C16.2533 15.8417 16.5502 15.683 16.8735 15.6186C17.1968 15.5543 17.532 15.5873 17.8365 15.7135C18.141 15.8396 18.4013 16.0533 18.5845 16.3273C18.7676 16.6014 18.8654 16.9236 18.8654 17.2533C18.8654 17.6953 18.6898 18.1192 18.3772 18.4318C18.0646 18.7444 17.6407 18.92 17.1987 18.92Z" fill="#2D3536"/>
<path d="M9.447 16C9.16543 15.3134 8.64094 14.7545 7.97358 14.43C7.30623 14.1054 6.54275 14.038 5.82883 14.2404C5.1149 14.4429 4.50052 14.9012 4.10291 15.5277C3.7053 16.1543 3.5523 16.9053 3.67311 17.6375C3.79392 18.3697 4.18008 19.0318 4.7579 19.4974C5.33572 19.963 6.06475 20.1996 6.80588 20.162C7.54701 20.1244 8.24834 19.8152 8.77606 19.2935C9.30378 18.7717 9.62093 18.074 9.667 17.3333H13.2003V17.1667C13.1871 16.7733 13.2321 16.3802 13.3337 16H9.447ZM6.667 18.92C6.33736 18.92 6.01513 18.8223 5.74105 18.6391C5.46696 18.456 5.25334 18.1957 5.1272 17.8911C5.00105 17.5866 4.96804 17.2515 5.03235 16.9282C5.09666 16.6049 5.2554 16.3079 5.48848 16.0748C5.72157 15.8417 6.01854 15.683 6.34185 15.6187C6.66515 15.5544 7.00026 15.5874 7.3048 15.7135C7.60935 15.8397 7.86964 16.0533 8.05278 16.3274C8.23591 16.6015 8.33366 16.9237 8.33366 17.2533C8.33366 17.6954 8.15807 18.1193 7.84551 18.4318C7.53295 18.7444 7.10902 18.92 6.667 18.92Z" fill="#2D3536"/>
</g>
<defs>
<clipPath id="clip0_373_3457">
<rect width="24" height="24" fill="white"/>
</clipPath>
</defs>
</svg>
