<svg width="400" height="400" viewBox="0 0 400 400" fill="none" xmlns="http://www.w3.org/2000/svg">
<path d="M40 206.863C40 249.298 56.8571 289.995 86.8629 320C116.869 350.006 157.565 366.863 200 366.863C242.435 366.863 283.131 350.006 313.137 320C343.143 289.995 360 249.298 360 206.863C360 164.429 343.143 123.732 313.137 93.7262C283.131 63.7204 242.435 46.8633 200 46.8633C157.565 46.8633 116.869 63.7204 86.8629 93.7262C56.8571 123.732 40 164.429 40 206.863Z" fill="#FCEDE1"/>
<path d="M186.591 101.736C179.276 95.9591 169.966 93.3228 160.709 94.4066C151.451 95.4904 143.002 100.206 137.219 107.516C132.683 113.26 129.407 124.232 127.103 135.316C122.303 125.064 116.583 115.14 110.843 110.604C103.529 104.822 94.2185 102.183 84.9587 103.266C75.6989 104.349 67.2487 109.066 61.4669 116.38C55.6852 123.694 53.0456 133.004 54.1288 142.264C55.212 151.524 59.9293 159.974 67.2429 165.756C80.4429 176.196 122.639 176.496 130.983 176.448L131.899 176.392L132.827 176.232C140.931 174.356 181.927 164.308 192.359 151.108C198.127 143.789 200.757 134.482 199.674 125.227C198.59 115.972 193.881 107.525 186.579 101.736H186.591ZM77.7229 152.512C73.9781 149.49 71.5772 145.111 71.0418 140.329C70.5064 135.546 71.8798 130.746 74.8636 126.97C77.8475 123.194 82.2006 120.748 86.9774 120.164C91.7542 119.579 96.5687 120.903 100.375 123.848C104.839 127.38 111.915 141.048 118.859 159.344C98.7069 158.548 81.9029 155.812 77.7229 152.512ZM179.123 140.64C175.819 144.816 160.099 151.36 140.671 156.788C142.875 140.152 146.519 122.984 150.463 117.988C153.471 114.194 157.861 111.746 162.67 111.183C167.479 110.62 172.316 111.987 176.119 114.984C179.912 117.993 182.357 122.383 182.92 127.192C183.483 132 182.118 136.836 179.123 140.64Z" fill="white" stroke="#2D3536" stroke-linecap="round" stroke-linejoin="round"/>
<path d="M47.5195 184.149L215.624 164.469L219.596 198.381L51.4875 218.061L47.5195 184.149Z" fill="#F9DBC1"/>
<path d="M211.442 290.072L80.7984 305.368C79.8034 305.485 78.7951 305.405 77.8311 305.132C76.8671 304.859 75.9663 304.399 75.1803 303.778C74.3942 303.157 73.7382 302.387 73.2499 301.512C72.7616 300.637 72.4505 299.675 72.3344 298.68L62.7344 216.74L208.534 199.672L218.134 281.608C218.251 282.603 218.171 283.612 217.898 284.576C217.625 285.54 217.165 286.441 216.543 287.227C215.922 288.013 215.151 288.669 214.276 289.157C213.401 289.645 212.438 289.956 211.442 290.072Z" fill="#F9DBC1"/>
<path d="M211.442 290.072L80.7984 305.368C79.8034 305.485 78.7951 305.405 77.8311 305.132C76.8671 304.859 75.9663 304.399 75.1803 303.778C74.3942 303.157 73.7382 302.387 73.2499 301.512C72.7616 300.637 72.4505 299.675 72.3344 298.68L62.7344 216.74L208.534 199.672L218.134 281.608C218.251 282.603 218.171 283.612 217.898 284.576C217.625 285.54 217.165 286.441 216.543 287.227C215.922 288.013 215.151 288.669 214.276 289.157C213.401 289.645 212.438 289.956 211.442 290.072Z" stroke="#2D3536" stroke-linecap="round" stroke-linejoin="round"/>
<path d="M47.5195 184.149L215.624 164.469L219.596 198.381L51.4875 218.061L47.5195 184.149Z" stroke="#2D3536" stroke-linecap="round" stroke-linejoin="round"/>
<path d="M118.91 210.164L152.362 206.248L162.842 295.76L129.39 299.68L118.91 210.164Z" fill="white"/>
<path d="M118.91 210.164L152.362 206.248L162.842 295.76L129.39 299.68L118.91 210.164Z" stroke="#2D3536" stroke-linecap="round" stroke-linejoin="round"/>
<path d="M114.945 176.252L148.397 172.336L152.365 206.248L118.913 210.168L114.945 176.252Z" fill="white" stroke="#2D3536" stroke-linecap="round" stroke-linejoin="round"/>
<path d="M138.754 339.872C138.754 341.889 145.302 343.825 156.958 345.251C168.614 346.678 184.422 347.48 200.906 347.48C217.39 347.48 233.198 346.678 244.854 345.251C256.51 343.825 263.058 341.889 263.058 339.872C263.058 337.854 256.51 335.919 244.854 334.492C233.198 333.065 217.39 332.264 200.906 332.264C184.422 332.264 168.614 333.065 156.958 334.492C145.302 335.919 138.754 337.854 138.754 339.872Z" fill="#F9DBC1"/>
<path d="M310.208 55.9649C305.198 49.2294 297.72 44.757 289.416 43.5293C281.112 42.3017 272.66 44.4191 265.916 49.4169C260.624 53.3489 255.204 62.1249 250.604 71.2249C248.832 61.1849 246.184 51.2249 242.256 45.9209C237.251 39.1796 229.773 34.7027 221.467 33.4751C213.161 32.2475 204.707 34.3697 197.966 39.3749C191.225 44.38 186.748 51.8582 185.52 60.1641C184.292 68.4701 186.415 76.9236 191.42 83.6649C200.452 95.8369 237.076 105.993 244.348 107.905L245.148 108.073L245.992 108.149C253.48 108.417 291.484 109.289 303.652 100.257C310.385 95.2457 314.857 87.7682 316.084 79.4648C317.312 71.1614 315.195 62.71 310.2 55.9649H310.208ZM203.632 74.6009C201.226 71.0905 200.275 66.7846 200.977 62.5875C201.679 58.3903 203.979 54.6284 207.396 52.0917C210.813 49.555 215.08 48.441 219.3 48.9834C223.521 49.5259 227.368 51.6827 230.032 55.0009C233.084 59.1209 236.032 72.6529 237.784 90.2009C220.464 84.7689 206.492 78.4529 203.632 74.6009ZM294.596 88.0489C290.74 90.9049 275.536 92.9089 257.368 93.0769C263.184 79.1249 270.38 65.0489 274.968 61.6289C278.473 59.0353 282.863 57.9368 287.176 58.5741C291.49 59.2114 295.375 61.5325 297.98 65.0289C300.576 68.5332 301.677 72.9233 301.043 77.2378C300.408 81.5524 298.09 85.4398 294.596 88.0489Z" fill="#ED8A37" stroke="#2D3536" stroke-linecap="round" stroke-linejoin="round"/>
<path d="M165.445 125.451L169.941 95.0312L320.749 117.323L316.249 147.747L165.445 125.451Z" fill="white"/>
<path d="M287.668 225.571L170.468 208.247C169.575 208.116 168.717 207.81 167.943 207.346C167.169 206.883 166.493 206.272 165.956 205.547C165.418 204.823 165.028 204 164.808 203.125C164.589 202.25 164.543 201.34 164.676 200.447L175.54 126.943L306.34 146.275L295.468 219.779C295.336 220.672 295.03 221.53 294.566 222.304C294.103 223.078 293.492 223.754 292.768 224.291C292.043 224.829 291.22 225.219 290.345 225.439C289.47 225.658 288.56 225.703 287.668 225.571Z" fill="white"/>
<path d="M287.668 225.571L170.468 208.247C169.575 208.116 168.717 207.81 167.943 207.346C167.169 206.883 166.493 206.272 165.956 205.547C165.418 204.823 165.028 204 164.808 203.125C164.589 202.25 164.543 201.34 164.676 200.447L175.54 126.943L306.34 146.275L295.468 219.779C295.336 220.672 295.03 221.53 294.566 222.304C294.103 223.078 293.492 223.754 292.768 224.291C292.043 224.829 291.22 225.219 290.345 225.439C289.47 225.658 288.56 225.703 287.668 225.571Z" stroke="#2D3536" stroke-linecap="round" stroke-linejoin="round"/>
<path d="M165.445 125.451L169.941 95.0312L320.749 117.323L316.249 147.747L165.445 125.451Z" stroke="#2D3536" stroke-linecap="round" stroke-linejoin="round"/>
<path d="M225.938 134.393L230.434 103.973L260.445 108.409L255.949 138.829L225.938 134.393Z" fill="#ED8A37"/>
<path d="M214.07 214.696L225.942 134.4L255.954 138.836L244.082 219.132L214.07 214.696Z" fill="#ED8A37"/>
<path d="M214.07 214.696L225.942 134.4L255.954 138.836L244.082 219.132L214.07 214.696Z" stroke="#2D3536" stroke-linecap="round" stroke-linejoin="round"/>
<path d="M225.938 134.393L230.434 103.973L260.445 108.409L255.949 138.829L225.938 134.393Z" stroke="#2D3536" stroke-linecap="round" stroke-linejoin="round"/>
<path d="M192.828 242.831C192.828 252.098 194.653 261.273 198.199 269.834C201.745 278.394 206.943 286.173 213.495 292.725C220.047 299.277 227.825 304.474 236.386 308.02C244.947 311.566 254.122 313.391 263.388 313.391C272.654 313.391 281.83 311.566 290.39 308.02C298.951 304.474 306.729 299.277 313.282 292.725C319.834 286.173 325.031 278.394 328.577 269.834C332.123 261.273 333.948 252.098 333.948 242.831C333.948 233.565 332.123 224.39 328.577 215.829C325.031 207.269 319.834 199.49 313.282 192.938C306.729 186.386 298.951 181.189 290.39 177.643C281.83 174.097 272.654 172.271 263.388 172.271C254.122 172.271 244.947 174.097 236.386 177.643C227.825 181.189 220.047 186.386 213.495 192.938C206.943 199.49 201.745 207.269 198.199 215.829C194.653 224.39 192.828 233.565 192.828 242.831Z" fill="#F9DBC1"/>
<path d="M207.844 242.833C207.844 257.564 213.696 271.692 224.112 282.109C234.529 292.525 248.657 298.377 263.388 298.377C278.119 298.377 292.247 292.525 302.663 282.109C313.08 271.692 318.932 257.564 318.932 242.833C318.932 235.539 317.495 228.316 314.704 221.577C311.912 214.838 307.821 208.715 302.663 203.558C297.506 198.4 291.382 194.308 284.644 191.517C277.905 188.726 270.682 187.289 263.388 187.289C256.094 187.289 248.871 188.726 242.132 191.517C235.393 194.308 229.27 198.4 224.112 203.558C218.954 208.715 214.863 214.838 212.072 221.577C209.28 228.316 207.844 235.539 207.844 242.833Z" stroke="#2D3536" stroke-linecap="round" stroke-linejoin="round"/>
<path d="M192.828 242.831C192.828 252.098 194.653 261.273 198.199 269.834C201.745 278.394 206.943 286.173 213.495 292.725C220.047 299.277 227.825 304.474 236.386 308.02C244.947 311.566 254.122 313.391 263.388 313.391C272.654 313.391 281.83 311.566 290.39 308.02C298.951 304.474 306.729 299.277 313.282 292.725C319.834 286.173 325.031 278.394 328.577 269.834C332.123 261.273 333.948 252.098 333.948 242.831C333.948 233.565 332.123 224.39 328.577 215.829C325.031 207.269 319.834 199.49 313.282 192.938C306.729 186.386 298.951 181.189 290.39 177.643C281.83 174.097 272.654 172.271 263.388 172.271C254.122 172.271 244.947 174.097 236.386 177.643C227.825 181.189 220.047 186.386 213.495 192.938C206.943 199.49 201.745 207.269 198.199 215.829C194.653 224.39 192.828 233.565 192.828 242.831Z" stroke="#2D3536" stroke-linecap="round" stroke-linejoin="round"/>
<path d="M258.731 223.84C269.079 223.84 273.771 233.172 273.771 242.612C273.771 252.052 269.079 261.388 258.731 261.388C248.383 261.388 243.691 252.048 243.691 242.612C243.691 233.176 248.399 223.84 258.731 223.84ZM258.731 253.512C263.827 253.512 265.291 247.112 265.291 242.612C265.291 238.112 263.827 231.712 258.731 231.712C253.635 231.712 252.171 238.112 252.171 242.612C252.171 247.112 253.635 253.512 258.731 253.512Z" fill="#2D3536"/>
<path d="M283.342 223.839C285.452 223.906 287.454 224.791 288.924 226.307C290.393 227.823 291.215 229.852 291.215 231.963C291.215 234.075 290.393 236.104 288.924 237.62C287.454 239.136 285.452 240.021 283.342 240.087C281.231 240.021 279.229 239.136 277.76 237.62C276.29 236.104 275.469 234.075 275.469 231.963C275.469 229.852 276.29 227.823 277.76 226.307C279.229 224.791 281.231 223.906 283.342 223.839ZM297.778 226.511C298.634 224.999 299.442 223.839 300.902 223.839C301.283 223.827 301.664 223.891 302.021 224.026C302.377 224.162 302.704 224.367 302.981 224.63C303.258 224.892 303.48 225.207 303.635 225.556C303.79 225.905 303.874 226.282 303.882 226.663C303.69 228.021 303.152 229.307 302.318 230.395L285.998 258.711C285.142 260.223 284.338 261.387 282.874 261.387C282.492 261.4 282.111 261.336 281.754 261.2C281.397 261.064 281.07 260.859 280.793 260.596C280.516 260.333 280.294 260.017 280.139 259.668C279.985 259.318 279.902 258.941 279.894 258.559C280.088 257.201 280.626 255.915 281.458 254.823L297.778 226.511ZM283.342 234.335C283.826 234.392 284.315 234.3 284.746 234.072C285.176 233.844 285.527 233.491 285.751 233.058C285.976 232.626 286.064 232.136 286.003 231.652C285.942 231.169 285.736 230.716 285.411 230.352C285.087 229.989 284.659 229.733 284.186 229.619C283.712 229.504 283.215 229.537 282.76 229.712C282.306 229.887 281.915 230.196 281.64 230.598C281.365 231 281.219 231.476 281.222 231.963C281.198 232.26 281.234 232.558 281.329 232.84C281.424 233.122 281.575 233.382 281.773 233.604C281.972 233.826 282.213 234.005 282.482 234.131C282.752 234.256 283.044 234.326 283.342 234.335ZM300.45 245.135C302.551 245.216 304.539 246.108 305.997 247.623C307.455 249.138 308.269 251.159 308.269 253.261C308.269 255.364 307.455 257.385 305.997 258.9C304.539 260.415 302.551 261.307 300.45 261.387C298.349 261.307 296.361 260.415 294.903 258.9C293.445 257.385 292.63 255.364 292.63 253.261C292.63 251.159 293.445 249.138 294.903 247.623C296.361 246.108 298.349 245.216 300.45 245.135ZM300.45 255.631C300.934 255.689 301.424 255.598 301.854 255.371C302.285 255.143 302.637 254.79 302.862 254.358C303.087 253.925 303.176 253.435 303.115 252.951C303.055 252.468 302.849 252.014 302.525 251.651C302.2 251.287 301.773 251.031 301.299 250.916C300.826 250.801 300.329 250.833 299.874 251.008C299.419 251.182 299.028 251.491 298.753 251.893C298.478 252.296 298.332 252.772 298.334 253.259C298.309 253.556 298.345 253.854 298.44 254.136C298.534 254.418 298.685 254.678 298.883 254.9C299.08 255.122 299.322 255.301 299.591 255.427C299.86 255.552 300.153 255.622 300.45 255.631Z" fill="#2D3536"/>
<path d="M225 239.499L236.287 228.036C236.915 227.399 238 227.843 238 228.738V257.999" stroke="#2D3536" stroke-width="7" stroke-linecap="round"/>
</svg>
