<svg xmlns="http://www.w3.org/2000/svg" width="100" height="100" viewBox="0 0 100 100" fill="none">
  <path d="M39.8438 12.5C40.1687 12.5047 40.4906 12.5484 40.8047 12.6328C41.1537 11.1408 42.0393 9.82923 43.2928 8.94797C44.5464 8.06671 46.0803 7.67731 47.6024 7.85394C49.1244 8.03057 50.5284 8.76088 51.5468 9.90579C52.5652 11.0507 53.127 12.5302 53.125 14.0625C53.9538 14.0625 54.7487 14.3917 55.3347 14.9778C55.9208 15.5638 56.25 16.3587 56.25 17.1875C56.25 18.0163 55.9208 18.8112 55.3347 19.3972C54.7487 19.9833 53.9538 20.3125 53.125 20.3125H39.8438C38.8077 20.3125 37.8142 19.901 37.0816 19.1684C36.3491 18.4358 35.9375 17.4423 35.9375 16.4063C35.9375 15.3703 36.3491 14.3767 37.0816 13.6441C37.8142 12.9116 38.8077 12.5 39.8438 12.5Z" fill="#E7F0EF" stroke="#E7F0EF" stroke-linecap="round" stroke-linejoin="round"/>
  <path d="M89.8438 26.5625C89.5191 26.5663 89.1963 26.6109 88.8828 26.6953C88.5338 25.2033 87.6482 23.8917 86.3947 23.0105C85.1411 22.1292 83.6072 21.7398 82.0852 21.9164C80.5631 22.0931 79.1591 22.8234 78.1407 23.9683C77.1223 25.1132 76.5605 26.5927 76.5625 28.125C75.7337 28.125 74.9388 28.4542 74.3528 29.0403C73.7667 29.6263 73.4375 30.4212 73.4375 31.25C73.4375 32.0788 73.7667 32.8737 74.3528 33.4597C74.9388 34.0458 75.7337 34.375 76.5625 34.375H89.8438C90.8798 34.375 91.8733 33.9635 92.6059 33.2309C93.3385 32.4983 93.75 31.5048 93.75 30.4688C93.75 29.4328 93.3385 28.4392 92.6059 27.7066C91.8733 26.9741 90.8798 26.5625 89.8438 26.5625Z" fill="#E7F0EF" stroke="#E7F0EF" stroke-linecap="round" stroke-linejoin="round"/>
  <path d="M15.625 23.4375C17.697 23.4375 19.6841 22.6144 21.1493 21.1493C22.6144 19.6841 23.4375 17.697 23.4375 15.625C23.4375 13.553 22.6144 11.5659 21.1493 10.1007C19.6841 8.6356 17.697 7.8125 15.625 7.8125C13.553 7.8125 11.5659 8.6356 10.1007 10.1007C8.6356 11.5659 7.8125 13.553 7.8125 15.625C7.8125 17.697 8.6356 19.6841 10.1007 21.1493C11.5659 22.6144 13.553 23.4375 15.625 23.4375Z" fill="#CDE0DE" stroke="#CDE0DE" stroke-linecap="round" stroke-linejoin="round"/>
  <path d="M15.625 1.5625V4.6875" stroke="#CDE0DE" stroke-linecap="round" stroke-linejoin="round"/>
  <path d="M15.625 26.5625V29.6875" stroke="#CDE0DE" stroke-linecap="round" stroke-linejoin="round"/>
  <path d="M29.6875 15.625H26.5625" stroke="#CDE0DE" stroke-linecap="round" stroke-linejoin="round"/>
  <path d="M4.6875 15.625H1.5625" stroke="#CDE0DE" stroke-linecap="round" stroke-linejoin="round"/>
  <path d="M5.68164 5.68127L7.89102 7.89065" stroke="#CDE0DE" stroke-linecap="round" stroke-linejoin="round"/>
  <path d="M23.3594 23.3594L25.5688 25.5688" stroke="#CDE0DE" stroke-linecap="round" stroke-linejoin="round"/>
  <path d="M25.5688 5.68124L23.3594 7.89062" stroke="#CDE0DE" stroke-linecap="round" stroke-linejoin="round"/>
  <path d="M7.89102 23.3594L5.68164 25.5688" stroke="#CDE0DE" stroke-linecap="round" stroke-linejoin="round"/>
  <path d="M29.6875 42.1875H14.0625V48.4375H18.75L21.875 60.9375H34.375V46.875C34.375 45.6318 33.8811 44.4395 33.0021 43.5604C32.123 42.6814 30.9307 42.1875 29.6875 42.1875Z" fill="#CDE0DE" stroke="#2D3536" stroke-linecap="round" stroke-linejoin="round"/>
  <path d="M32.8125 60.9375H26.5625L23.4375 42.1875H29.6875L32.8125 60.9375Z" fill="white" stroke="#2D3536" stroke-linecap="round" stroke-linejoin="round"/>
  <path d="M27.7562 45.3125C26.928 45.3125 26.116 45.0819 25.4114 44.6464C24.7069 44.2109 24.1375 43.5878 23.7672 42.8469L23.4375 42.1875H29.6875C29.8521 42.5167 29.9298 42.8825 29.9132 43.2502C29.8967 43.6179 29.7865 43.9752 29.593 44.2883C29.3995 44.6014 29.1292 44.8599 28.8077 45.0391C28.4862 45.2184 28.1243 45.3125 27.7562 45.3125Z" fill="white" stroke="#2D3536" stroke-linecap="round" stroke-linejoin="round"/>
  <path d="M11.3281 32.8125C12.0533 32.8125 12.7488 33.1006 13.2616 33.6134C13.7744 34.1262 14.0625 34.8217 14.0625 35.5469V48.4375C12.6121 48.4375 11.2211 47.8613 10.1955 46.8357C9.16992 45.8102 8.59375 44.4192 8.59375 42.9688V35.5469C8.59375 34.8217 8.88184 34.1262 9.39463 33.6134C9.90742 33.1006 10.6029 32.8125 11.3281 32.8125Z" fill="white" stroke="#2D3536" stroke-linecap="round" stroke-linejoin="round"/>
  <path d="M26.5625 42.1875C29.0489 42.1875 31.4335 41.1998 33.1916 39.4416C34.9498 37.6835 35.9375 35.2989 35.9375 32.8125C35.9375 30.3261 34.9498 27.9415 33.1916 26.1834C31.4335 24.4252 29.0489 23.4375 26.5625 23.4375C24.0761 23.4375 21.6915 24.4252 19.9334 26.1834C18.1752 27.9415 17.1875 30.3261 17.1875 32.8125C17.1875 35.2989 18.1752 37.6835 19.9334 39.4416C21.6915 41.1998 24.0761 42.1875 26.5625 42.1875Z" fill="white" stroke="#2D3536" stroke-linecap="round" stroke-linejoin="round"/>
  <path d="M23.4375 35.9375C23.4375 36.7663 23.7667 37.5612 24.3528 38.1472C24.9388 38.7333 25.7337 39.0625 26.5625 39.0625C27.3913 39.0625 28.1862 38.7333 28.7722 38.1472C29.3583 37.5612 29.6875 36.7663 29.6875 35.9375H23.4375Z" stroke="#2D3536" stroke-linecap="round" stroke-linejoin="round"/>
  <path d="M26.5633 39.0625C28.0492 39.0625 29.2555 38.3625 29.2555 37.5C29.2555 36.6375 28.0477 35.9375 26.5633 35.9375C25.0773 35.9375 23.8711 36.6375 23.8711 37.5C23.8711 38.3625 25.0773 39.0625 26.5633 39.0625Z" fill="#E7F0EF" stroke="#2D3536" stroke-linecap="round" stroke-linejoin="round"/>
  <path d="M23.4375 31.25V32.8125" stroke="#2D3536" stroke-linecap="round" stroke-linejoin="round"/>
  <path d="M29.6875 31.25V32.8125" stroke="#2D3536" stroke-linecap="round" stroke-linejoin="round"/>
  <path d="M60.9375 79.6875H54.6875C52.2011 79.6875 49.8165 80.6752 48.0584 82.4334C46.3002 84.1915 45.3125 86.5761 45.3125 89.0625C45.3125 91.5489 46.3002 93.9335 48.0584 95.6916C49.8165 97.4498 52.2011 98.4375 54.6875 98.4375H60.9375C63.4239 98.4375 65.8085 97.4498 67.5666 95.6916C69.3248 93.9335 70.3125 91.5489 70.3125 89.0625C70.3125 86.5761 69.3248 84.1915 67.5666 82.4334C65.8085 80.6752 63.4239 79.6875 60.9375 79.6875Z" fill="#2D3536" stroke="#2D3536" stroke-linecap="round" stroke-linejoin="round"/>
  <path d="M64.0625 98.4375C66.5489 98.4375 68.9335 97.4498 70.6916 95.6916C72.4498 93.9335 73.4375 91.5489 73.4375 89.0625C73.4375 86.5761 72.4498 84.1915 70.6916 82.4334C68.9335 80.6752 66.5489 79.6875 64.0625 79.6875C61.5761 79.6875 59.1915 80.6752 57.4334 82.4334C55.6752 84.1915 54.6875 86.5761 54.6875 89.0625C54.6875 91.5489 55.6752 93.9335 57.4334 95.6916C59.1915 97.4498 61.5761 98.4375 64.0625 98.4375Z" fill="white" stroke="#2D3536" stroke-linecap="round" stroke-linejoin="round"/>
  <path d="M64.0625 93.75C65.3057 93.75 66.498 93.2561 67.3771 92.3771C68.2561 91.498 68.75 90.3057 68.75 89.0625C68.75 87.8193 68.2561 86.627 67.3771 85.7479C66.498 84.8689 65.3057 84.375 64.0625 84.375C62.8193 84.375 61.627 84.8689 60.7479 85.7479C59.8689 86.627 59.375 87.8193 59.375 89.0625C59.375 90.3057 59.8689 91.498 60.7479 92.3771C61.627 93.2561 62.8193 93.75 64.0625 93.75Z" fill="#E7F0EF" stroke="#2D3536" stroke-linecap="round" stroke-linejoin="round"/>
  <path d="M26.5625 79.6875H20.3125C17.8261 79.6875 15.4415 80.6752 13.6834 82.4334C11.9252 84.1915 10.9375 86.5761 10.9375 89.0625C10.9375 91.5489 11.9252 93.9335 13.6834 95.6916C15.4415 97.4498 17.8261 98.4375 20.3125 98.4375H26.5625C29.0489 98.4375 31.4335 97.4498 33.1916 95.6916C34.9498 93.9335 35.9375 91.5489 35.9375 89.0625C35.9375 86.5761 34.9498 84.1915 33.1916 82.4334C31.4335 80.6752 29.0489 79.6875 26.5625 79.6875Z" fill="#2D3536" stroke="#2D3536" stroke-linecap="round" stroke-linejoin="round"/>
  <path d="M26.5625 98.4375C29.0489 98.4375 31.4335 97.4498 33.1916 95.6916C34.9498 93.9335 35.9375 91.5489 35.9375 89.0625C35.9375 86.5761 34.9498 84.1915 33.1916 82.4334C31.4335 80.6752 29.0489 79.6875 26.5625 79.6875C24.0761 79.6875 21.6915 80.6752 19.9334 82.4334C18.1752 84.1915 17.1875 86.5761 17.1875 89.0625C17.1875 91.5489 18.1752 93.9335 19.9334 95.6916C21.6915 97.4498 24.0761 98.4375 26.5625 98.4375Z" fill="white" stroke="#2D3536" stroke-linecap="round" stroke-linejoin="round"/>
  <path d="M26.5625 93.75C27.8057 93.75 28.998 93.2561 29.8771 92.3771C30.7561 91.498 31.25 90.3057 31.25 89.0625C31.25 87.8193 30.7561 86.627 29.8771 85.7479C28.998 84.8689 27.8057 84.375 26.5625 84.375C25.3193 84.375 24.127 84.8689 23.2479 85.7479C22.3689 86.627 21.875 87.8193 21.875 89.0625C21.875 90.3057 22.3689 91.498 23.2479 92.3771C24.127 93.2561 25.3193 93.75 26.5625 93.75Z" fill="#E7F0EF" stroke="#2D3536" stroke-linecap="round" stroke-linejoin="round"/>
  <path d="M82.8125 79.6875H76.5625C74.0761 79.6875 71.6915 80.6752 69.9334 82.4334C68.1752 84.1915 67.1875 86.5761 67.1875 89.0625C67.1875 91.5489 68.1752 93.9335 69.9334 95.6916C71.6915 97.4498 74.0761 98.4375 76.5625 98.4375H82.8125C85.2989 98.4375 87.6835 97.4498 89.4416 95.6916C91.1998 93.9335 92.1875 91.5489 92.1875 89.0625C92.1875 86.5761 91.1998 84.1915 89.4416 82.4334C87.6835 80.6752 85.2989 79.6875 82.8125 79.6875Z" fill="#2D3536" stroke="#2D3536" stroke-linecap="round" stroke-linejoin="round"/>
  <path d="M45.3125 79.6875H39.0625C36.5761 79.6875 34.1915 80.6752 32.4334 82.4334C30.6752 84.1915 29.6875 86.5761 29.6875 89.0625C29.6875 91.5489 30.6752 93.9335 32.4334 95.6916C34.1915 97.4498 36.5761 98.4375 39.0625 98.4375H45.3125C47.7989 98.4375 50.1835 97.4498 51.9416 95.6916C53.6998 93.9335 54.6875 91.5489 54.6875 89.0625C54.6875 86.5761 53.6998 84.1915 51.9416 82.4334C50.1835 80.6752 47.7989 79.6875 45.3125 79.6875Z" fill="#2D3536" stroke="#2D3536" stroke-linecap="round" stroke-linejoin="round"/>
  <path d="M92.1875 89.0625H7.8125C6.1549 89.0625 4.56519 88.404 3.39308 87.2319C2.22098 86.0598 1.5625 84.4701 1.5625 82.8125V73.3125C1.56249 72.417 1.81897 71.5403 2.30162 70.786C2.78426 70.0317 3.47285 69.4315 4.28594 69.0562L21.875 60.9375H93.75L97.6125 68.6625C98.155 69.7473 98.4374 70.9434 98.4375 72.1562V82.8125C98.4375 84.4701 97.779 86.0598 96.6069 87.2319C95.4348 88.404 93.8451 89.0625 92.1875 89.0625Z" fill="#CDE0DE" stroke="#2D3536" stroke-linecap="round" stroke-linejoin="round"/>
  <path d="M1.5625 73.4375H98.4375V82.8125C98.4375 84.4701 97.779 86.0598 96.6069 87.2319C95.4348 88.404 93.8451 89.0625 92.1875 89.0625H7.8125C6.1549 89.0625 4.56519 88.404 3.39308 87.2319C2.22098 86.0598 1.5625 84.4701 1.5625 82.8125V73.4375Z" fill="#CDE0DE" stroke="#2D3536" stroke-linecap="round" stroke-linejoin="round"/>
  <path d="M92.1875 89.0625H7.8125C6.1549 89.0625 4.56519 88.404 3.39308 87.2319C2.22098 86.0598 1.5625 84.4701 1.5625 82.8125H98.4375C98.4375 84.4701 97.779 86.0598 96.6069 87.2319C95.4348 88.404 93.8451 89.0625 92.1875 89.0625Z" fill="white" stroke="#2D3536" stroke-linecap="round" stroke-linejoin="round"/>
  <path d="M93.75 60.9375H21.875L29.5219 45.6422C30.041 44.604 30.839 43.7309 31.8265 43.1207C32.8139 42.5105 33.9517 42.1874 35.1125 42.1875H84.1828C85.5765 42.1877 86.9302 42.6538 88.0287 43.5116C89.1271 44.3694 89.9073 45.5698 90.2453 46.9219L93.75 60.9375Z" fill="white" stroke="#2D3536" stroke-linecap="round" stroke-linejoin="round"/>
  <path d="M35.1125 42.1875C33.9517 42.1874 32.8139 42.5105 31.8265 43.1207C30.839 43.7309 30.041 44.604 29.5219 45.6422L28.9062 46.875H90.2297C89.884 45.5339 89.1024 44.3457 88.0078 43.4972C86.9133 42.6487 85.5677 42.188 84.1828 42.1875H35.1125Z" fill="#CDE0DE" stroke="#2D3536" stroke-linecap="round" stroke-linejoin="round"/>
  <path d="M98.4375 82.8125C98.4375 84.4701 97.779 86.0598 96.6069 87.2319C95.4348 88.404 93.8451 89.0625 92.1875 89.0625H29.6875C28.0299 89.0625 26.4402 88.404 25.2681 87.2319C24.096 86.0598 23.4375 84.4701 23.4375 82.8125V73.3125C23.4375 72.417 23.694 71.5403 24.1766 70.786C24.6593 70.0317 25.3479 69.4315 26.1609 69.0562L43.75 60.9375H93.75L97.4484 68.3328C98.0984 69.6344 98.4375 71.0703 98.4375 72.525V82.8125Z" fill="#CDE0DE" stroke="#2D3536" stroke-linecap="round" stroke-linejoin="round"/>
  <path d="M92.1875 89.0625H29.6875C28.0299 89.0625 26.4402 88.404 25.2681 87.2319C24.096 86.0598 23.4375 84.4701 23.4375 82.8125H98.4375C98.4375 84.4701 97.779 86.0598 96.6069 87.2319C95.4348 88.404 93.8451 89.0625 92.1875 89.0625Z" fill="white" stroke="#2D3536" stroke-linecap="round" stroke-linejoin="round"/>
  <path d="M45.3125 98.4375C47.7989 98.4375 50.1835 97.4498 51.9416 95.6916C53.6998 93.9335 54.6875 91.5489 54.6875 89.0625C54.6875 86.5761 53.6998 84.1915 51.9416 82.4334C50.1835 80.6752 47.7989 79.6875 45.3125 79.6875C42.8261 79.6875 40.4415 80.6752 38.6834 82.4334C36.9252 84.1915 35.9375 86.5761 35.9375 89.0625C35.9375 91.5489 36.9252 93.9335 38.6834 95.6916C40.4415 97.4498 42.8261 98.4375 45.3125 98.4375Z" fill="white" stroke="#2D3536" stroke-linecap="round" stroke-linejoin="round"/>
  <path d="M45.3125 93.75C46.5557 93.75 47.748 93.2561 48.6271 92.3771C49.5061 91.498 50 90.3057 50 89.0625C50 87.8193 49.5061 86.627 48.6271 85.7479C47.748 84.8689 46.5557 84.375 45.3125 84.375C44.0693 84.375 42.877 84.8689 41.9979 85.7479C41.1189 86.627 40.625 87.8193 40.625 89.0625C40.625 90.3057 41.1189 91.498 41.9979 92.3771C42.877 93.2561 44.0693 93.75 45.3125 93.75Z" fill="#E7F0EF" stroke="#2D3536" stroke-linecap="round" stroke-linejoin="round"/>
  <path d="M82.8125 98.4375C85.2989 98.4375 87.6835 97.4498 89.4416 95.6916C91.1998 93.9335 92.1875 91.5489 92.1875 89.0625C92.1875 86.5761 91.1998 84.1915 89.4416 82.4334C87.6835 80.6752 85.2989 79.6875 82.8125 79.6875C80.3261 79.6875 77.9415 80.6752 76.1834 82.4334C74.4252 84.1915 73.4375 86.5761 73.4375 89.0625C73.4375 91.5489 74.4252 93.9335 76.1834 95.6916C77.9415 97.4498 80.3261 98.4375 82.8125 98.4375Z" fill="white" stroke="#2D3536" stroke-linecap="round" stroke-linejoin="round"/>
  <path d="M82.8125 93.75C84.0557 93.75 85.248 93.2561 86.1271 92.3771C87.0061 91.498 87.5 90.3057 87.5 89.0625C87.5 87.8193 87.0061 86.627 86.1271 85.7479C85.248 84.8689 84.0557 84.375 82.8125 84.375C81.5693 84.375 80.377 84.8689 79.4979 85.7479C78.6189 86.627 78.125 87.8193 78.125 89.0625C78.125 90.3057 78.6189 91.498 79.4979 92.3771C80.377 93.2561 81.5693 93.75 82.8125 93.75Z" fill="#E7F0EF" stroke="#2D3536" stroke-linecap="round" stroke-linejoin="round"/>
  <path d="M79.6875 26.5625H39.0625C38.2337 26.5625 37.4388 26.8917 36.8528 27.4778C36.2667 28.0638 35.9375 28.8587 35.9375 29.6875V39.0625C35.9375 39.8913 36.2667 40.6862 36.8528 41.2722C37.4388 41.8583 38.2337 42.1875 39.0625 42.1875H79.6875C80.5163 42.1875 81.3112 41.8583 81.8972 41.2722C82.4833 40.6862 82.8125 39.8913 82.8125 39.0625V29.6875C82.8125 28.8587 82.4833 28.0638 81.8972 27.4778C81.3112 26.8917 80.5163 26.5625 79.6875 26.5625Z" fill="white" stroke="#2D3536" stroke-linecap="round" stroke-linejoin="round"/>
  <path d="M47.6562 34.375V36.3281C47.6562 36.6389 47.5328 36.937 47.313 37.1568C47.0932 37.3765 46.7952 37.5 46.4844 37.5H44.1406C43.8298 37.5 43.5318 37.3765 43.312 37.1568C43.0922 36.937 42.9688 36.6389 42.9688 36.3281V34.375" stroke="#2D3536" stroke-linecap="round" stroke-linejoin="round"/>
  <path d="M79.6875 26.5625H57.8125C56.9837 26.5625 56.1888 26.8917 55.6028 27.4778C55.0167 28.0638 54.6875 28.8587 54.6875 29.6875V39.0625C54.6875 39.8913 55.0167 40.6862 55.6028 41.2722C56.1888 41.8583 56.9837 42.1875 57.8125 42.1875H79.6875C80.5163 42.1875 81.3112 41.8583 81.8972 41.2722C82.4833 40.6862 82.8125 39.8913 82.8125 39.0625V29.6875C82.8125 28.8587 82.4833 28.0638 81.8972 27.4778C81.3112 26.8917 80.5163 26.5625 79.6875 26.5625Z" fill="white" stroke="#2D3536" stroke-linecap="round" stroke-linejoin="round"/>
  <path d="M35.9375 34.375H82.8125" stroke="#2D3536" stroke-linecap="round" stroke-linejoin="round"/>
  <path d="M75 14.0625H45.3125C44.4837 14.0625 43.6888 14.3917 43.1028 14.9778C42.5167 15.5638 42.1875 16.3587 42.1875 17.1875V23.4375C42.1875 24.2663 42.5167 25.0612 43.1028 25.6472C43.6888 26.2333 44.4837 26.5625 45.3125 26.5625H75C75.8288 26.5625 76.6237 26.2333 77.2097 25.6472C77.7958 25.0612 78.125 24.2663 78.125 23.4375V17.1875C78.125 16.3587 77.7958 15.5638 77.2097 14.9778C76.6237 14.3917 75.8288 14.0625 75 14.0625Z" fill="white" stroke="#2D3536" stroke-linecap="round" stroke-linejoin="round"/>
  <path d="M53.125 20.3125V22.2656C53.125 22.5764 53.0015 22.8745 52.7818 23.0943C52.562 23.314 52.2639 23.4375 51.9531 23.4375H49.6094C49.2986 23.4375 49.0005 23.314 48.7807 23.0943C48.561 22.8745 48.4375 22.5764 48.4375 22.2656V20.3125" stroke="#2D3536" stroke-linecap="round" stroke-linejoin="round"/>
  <path d="M75 14.0625H62.5C61.6712 14.0625 60.8763 14.3917 60.2903 14.9778C59.7042 15.5638 59.375 16.3587 59.375 17.1875V23.4375C59.375 24.2663 59.7042 25.0612 60.2903 25.6472C60.8763 26.2333 61.6712 26.5625 62.5 26.5625H75C75.8288 26.5625 76.6237 26.2333 77.2097 25.6472C77.7958 25.0612 78.125 24.2663 78.125 23.4375V17.1875C78.125 16.3587 77.7958 15.5638 77.2097 14.9778C76.6237 14.3917 75.8288 14.0625 75 14.0625Z" fill="white" stroke="#2D3536" stroke-linecap="round" stroke-linejoin="round"/>
  <path d="M42.1875 20.3125H78.125" stroke="#2D3536" stroke-linecap="round" stroke-linejoin="round"/>
  <path d="M93.75 60.9375H43.75L51.3969 45.6422C51.916 44.604 52.714 43.7309 53.7015 43.1207C54.6889 42.5105 55.8267 42.1874 56.9875 42.1875H84.1828C85.5765 42.1877 86.9302 42.6538 88.0287 43.5116C89.1271 44.3694 89.9073 45.5698 90.2453 46.9219L93.75 60.9375Z" fill="white" stroke="#2D3536" stroke-linecap="round" stroke-linejoin="round"/>
  <path d="M70.3125 60.9375H43.75L51.3969 45.6422C51.916 44.604 52.714 43.7309 53.7015 43.1207C54.6889 42.5105 55.8267 42.1874 56.9875 42.1875H70.3125V60.9375Z" fill="white" stroke="#2D3536" stroke-linecap="round" stroke-linejoin="round"/>
  <path d="M56.9875 42.1875C55.8267 42.1874 54.6889 42.5105 53.7015 43.1207C52.714 43.7309 51.916 44.604 51.3969 45.6422L50.7812 46.875H90.2297C89.8839 45.5351 89.1029 44.3464 88.0094 43.4984L87.9672 43.4703C87.7133 43.2751 87.4448 43.0996 87.1641 42.9453C87.0938 42.9078 87.0172 42.8828 86.9469 42.85C86.7162 42.7299 86.4783 42.6245 86.2344 42.5344C86.0687 42.4766 85.8937 42.4453 85.7234 42.4016C85.5609 42.3609 85.4016 42.3047 85.2344 42.2766C84.887 42.2173 84.5352 42.1875 84.1828 42.1875H56.9875Z" fill="#CDE0DE" stroke="#2D3536" stroke-linecap="round" stroke-linejoin="round"/>
  <path d="M17.1875 73.4375H23.4375V78.125H20.3125C19.4837 78.125 18.6888 77.7958 18.1028 77.2097C17.5167 76.6237 17.1875 75.8288 17.1875 75V73.4375Z" fill="#E7F0EF" stroke="#2D3536" stroke-linecap="round" stroke-linejoin="round"/>
  <path d="M1.5625 73.4375H7.8125V75C7.8125 75.8288 7.48326 76.6237 6.89721 77.2097C6.31116 77.7958 5.5163 78.125 4.6875 78.125H1.5625V73.4375Z" fill="#E7F0EF" stroke="#2D3536" stroke-linecap="round" stroke-linejoin="round"/>
  <path d="M23.4375 73.4375H26.5625C26.9769 73.4375 27.3743 73.6021 27.6674 73.8951C27.9604 74.1882 28.125 74.5856 28.125 75V76.5625C28.125 76.9769 27.9604 77.3743 27.6674 77.6674C27.3743 77.9604 26.9769 78.125 26.5625 78.125H23.4375V73.4375Z" fill="white" stroke="#2D3536" stroke-linecap="round" stroke-linejoin="round"/>
  <path d="M98.4375 78.125H95.3125C94.8981 78.125 94.5007 77.9604 94.2076 77.6674C93.9146 77.3743 93.75 76.9769 93.75 76.5625V75C93.75 74.5856 93.9146 74.1882 94.2076 73.8951C94.5007 73.6021 94.8981 73.4375 95.3125 73.4375H98.4375V78.125Z" fill="white" stroke="#2D3536" stroke-linecap="round" stroke-linejoin="round"/>
  <path d="M14.0625 81.25H9.375C8.9606 81.25 8.56317 81.4146 8.27015 81.7076C7.97712 82.0007 7.8125 82.3981 7.8125 82.8125C7.8125 83.2269 7.97712 83.6243 8.27015 83.9174C8.56317 84.2104 8.9606 84.375 9.375 84.375H14.0625C14.4769 84.375 14.8743 84.2104 15.1674 83.9174C15.4604 83.6243 15.625 83.2269 15.625 82.8125C15.625 82.3981 15.4604 82.0007 15.1674 81.7076C14.8743 81.4146 14.4769 81.25 14.0625 81.25Z" fill="#E7F0EF" stroke="#2D3536" stroke-linecap="round" stroke-linejoin="round"/>
  <path d="M57.8125 51.5625C60.2989 51.5625 62.6835 50.5748 64.4416 48.8166C66.1998 47.0585 67.1875 44.6739 67.1875 42.1875C67.1875 39.7011 66.1998 37.3165 64.4416 35.5584C62.6835 33.8002 60.2989 32.8125 57.8125 32.8125C55.3261 32.8125 52.9415 33.8002 51.1834 35.5584C49.4252 37.3165 48.4375 39.7011 48.4375 42.1875C48.4375 44.6739 49.4252 47.0585 51.1834 48.8166C52.9415 50.5748 55.3261 51.5625 57.8125 51.5625Z" fill="white" stroke="#2D3536" stroke-linecap="round" stroke-linejoin="round"/>
  <path d="M52.7344 47.6562C53.1488 47.6562 53.5462 47.4916 53.8392 47.1986C54.1323 46.9056 54.2969 46.5082 54.2969 46.0938C54.2969 45.6793 54.1323 45.2819 53.8392 44.9889C53.5462 44.6959 53.1488 44.5312 52.7344 44.5312C52.32 44.5312 51.9225 44.6959 51.6295 44.9889C51.3365 45.2819 51.1719 45.6793 51.1719 46.0938C51.1719 46.5082 51.3365 46.9056 51.6295 47.1986C51.9225 47.4916 52.32 47.6562 52.7344 47.6562Z" fill="#E7F0EF"/>
  <path d="M62.8906 47.6562C63.305 47.6562 63.7025 47.4916 63.9955 47.1986C64.2885 46.9056 64.4531 46.5082 64.4531 46.0938C64.4531 45.6793 64.2885 45.2819 63.9955 44.9889C63.7025 44.6959 63.305 44.5312 62.8906 44.5312C62.4762 44.5312 62.0788 44.6959 61.7858 44.9889C61.4927 45.2819 61.3281 45.6793 61.3281 46.0938C61.3281 46.5082 61.4927 46.9056 61.7858 47.1986C62.0788 47.4916 62.4762 47.6562 62.8906 47.6562Z" fill="#E7F0EF"/>
  <path d="M48.4375 42.1875C50.9239 42.1875 53.3085 41.1998 55.0666 39.4416C56.8248 37.6835 57.8125 35.2989 57.8125 32.8125C55.3261 32.8125 52.9415 33.8002 51.1834 35.5584C49.4252 37.3165 48.4375 39.7011 48.4375 42.1875Z" fill="#E7F0EF" stroke="#2D3536" stroke-linecap="round" stroke-linejoin="round"/>
  <path d="M67.1875 42.1875C67.1875 39.7011 66.1998 37.3165 64.4416 35.5584C62.6835 33.8002 60.2989 32.8125 57.8125 32.8125C57.8125 35.2989 58.8002 37.6835 60.5584 39.4416C62.3165 41.1998 64.7011 42.1875 67.1875 42.1875Z" fill="#E7F0EF" stroke="#2D3536" stroke-linecap="round" stroke-linejoin="round"/>
  <path d="M54.6875 40.625V42.1875" stroke="#2D3536" stroke-linecap="round" stroke-linejoin="round"/>
  <path d="M60.9375 40.625V42.1875" stroke="#2D3536" stroke-linecap="round" stroke-linejoin="round"/>
  <path d="M73.4375 60.9375V57.8125C73.4375 56.1549 74.096 54.5652 75.2681 53.3931C76.4402 52.221 78.0299 51.5625 79.6875 51.5625H90.625C91.8682 51.5625 93.0605 52.0564 93.9396 52.9354C94.8186 53.8145 95.3125 55.0068 95.3125 56.25V57.8125C95.3125 58.6413 94.9833 59.4362 94.3972 60.0222C93.8112 60.6083 93.0163 60.9375 92.1875 60.9375H73.4375Z" fill="white" stroke="#2D3536" stroke-linecap="round" stroke-linejoin="round"/>
  <path d="M90.625 51.5625H78.125V60.9375H90.625V51.5625Z" fill="#CDE0DE" stroke="#2D3536" stroke-linecap="round" stroke-linejoin="round"/>
  <path d="M81.25 51.5625H87.5V53.125C87.5 53.9538 87.1708 54.7487 86.5847 55.3347C85.9987 55.9208 85.2038 56.25 84.375 56.25C83.5462 56.25 82.7513 55.9208 82.1653 55.3347C81.5792 54.7487 81.25 53.9538 81.25 53.125V51.5625Z" fill="white" stroke="#2D3536" stroke-linecap="round" stroke-linejoin="round"/>
  <path d="M78.125 51.5625H90.625C91.4538 51.5625 92.2487 51.2332 92.8347 50.6472C93.4208 50.0611 93.75 49.2663 93.75 48.4375V42.5812C93.7879 40.0957 92.8636 37.6917 91.1703 35.8718C89.4771 34.0519 87.1459 32.9568 84.6641 32.8156C83.4091 32.7769 82.1591 32.9907 80.9883 33.4443C79.8175 33.8978 78.7497 34.582 77.8484 35.4561C76.947 36.3302 76.2305 37.3764 75.7412 38.5328C75.2519 39.6891 74.9998 40.9319 75 42.1875V48.4375C75 49.2663 75.3292 50.0611 75.9153 50.6472C76.5013 51.2332 77.2962 51.5625 78.125 51.5625Z" fill="#2D3536" stroke="#2D3536" stroke-linecap="round" stroke-linejoin="round"/>
  <path d="M84.375 51.5625C86.8614 51.5625 89.246 50.5748 91.0041 48.8166C92.7623 47.0585 93.75 44.6739 93.75 42.1875C93.75 39.7011 92.7623 37.3165 91.0041 35.5584C89.246 33.8002 86.8614 32.8125 84.375 32.8125C81.8886 32.8125 79.504 33.8002 77.7459 35.5584C75.9877 37.3165 75 39.7011 75 42.1875C75 44.6739 75.9877 47.0585 77.7459 48.8166C79.504 50.5748 81.8886 51.5625 84.375 51.5625Z" fill="white" stroke="#2D3536" stroke-linecap="round" stroke-linejoin="round"/>
  <path d="M78.9062 46.875C79.3207 46.875 79.7181 46.7104 80.0111 46.4174C80.3041 46.1243 80.4688 45.7269 80.4688 45.3125C80.4688 44.8981 80.3041 44.5007 80.0111 44.2076C79.7181 43.9146 79.3207 43.75 78.9062 43.75C78.4918 43.75 78.0944 43.9146 77.8014 44.2076C77.5084 44.5007 77.3438 44.8981 77.3438 45.3125C77.3438 45.7269 77.5084 46.1243 77.8014 46.4174C78.0944 46.7104 78.4918 46.875 78.9062 46.875Z" fill="#E7F0EF"/>
  <path d="M89.8438 46.875C90.2582 46.875 90.6556 46.7104 90.9486 46.4174C91.2416 46.1243 91.4062 45.7269 91.4062 45.3125C91.4062 44.8981 91.2416 44.5007 90.9486 44.2076C90.6556 43.9146 90.2582 43.75 89.8438 43.75C89.4293 43.75 89.0319 43.9146 88.7389 44.2076C88.4459 44.5007 88.2812 44.8981 88.2812 45.3125C88.2812 45.7269 88.4459 46.1243 88.7389 46.4174C89.0319 46.7104 89.4293 46.875 89.8438 46.875Z" fill="#E7F0EF"/>
  <path d="M75 42.1875C77.4864 42.1875 79.871 41.1998 81.6291 39.4416C83.3873 37.6835 84.375 35.2989 84.375 32.8125C81.8886 32.8125 79.504 33.8002 77.7459 35.5584C75.9877 37.3165 75 39.7011 75 42.1875Z" fill="#2D3536" stroke="#2D3536" stroke-linecap="round" stroke-linejoin="round"/>
  <path d="M93.75 42.1875C93.75 39.7011 92.7623 37.3165 91.0041 35.5584C89.246 33.8002 86.8614 32.8125 84.375 32.8125C84.375 35.2989 85.3627 37.6835 87.1209 39.4416C88.879 41.1998 91.2636 42.1875 93.75 42.1875Z" fill="#2D3536" stroke="#2D3536" stroke-linecap="round" stroke-linejoin="round"/>
  <path d="M86.7188 45.3125C86.7188 45.9341 86.4718 46.5302 86.0323 46.9698C85.5927 47.4093 84.9966 47.6562 84.375 47.6562C83.7534 47.6562 83.1573 47.4093 82.7177 46.9698C82.2782 46.5302 82.0312 45.9341 82.0312 45.3125" stroke="#2D3536" stroke-linecap="round" stroke-linejoin="round"/>
  <path d="M80.4688 40.625V42.1875" stroke="#2D3536" stroke-linecap="round" stroke-linejoin="round"/>
  <path d="M88.2812 40.625V42.1875" stroke="#2D3536" stroke-linecap="round" stroke-linejoin="round"/>
  <path d="M60.9375 51.5625H48.4375L45.7031 57.0313H50V60.9375H61.7188V62.5H67.1875V57.8125C67.1879 56.9916 67.0265 56.1787 66.7126 55.4202C66.3986 54.6618 65.9383 53.9726 65.3578 53.3922C64.7774 52.8117 64.0882 52.3514 63.3298 52.0374C62.5713 51.7235 61.7584 51.5621 60.9375 51.5625Z" fill="#CDE0DE" stroke="#2D3536" stroke-linecap="round" stroke-linejoin="round"/>
  <path d="M61.7188 60.9375V59.375" stroke="#2D3536" stroke-linecap="round" stroke-linejoin="round"/>
  <path d="M54.6875 51.5625H60.9375C60.9375 52.3913 60.6083 53.1862 60.0222 53.7722C59.4362 54.3583 58.6413 54.6875 57.8125 54.6875C56.9837 54.6875 56.1888 54.3583 55.6028 53.7722C55.0167 53.1862 54.6875 52.3913 54.6875 51.5625Z" fill="white" stroke="#2D3536" stroke-linecap="round" stroke-linejoin="round"/>
  <path d="M61.7188 62.5H67.1875V70.3125C67.1875 71.0377 66.8994 71.7332 66.3866 72.246C65.8738 72.7588 65.1783 73.0469 64.4531 73.0469C63.7279 73.0469 63.0324 72.7588 62.5196 72.246C62.0068 71.7332 61.7188 71.0377 61.7188 70.3125V62.5Z" fill="white" stroke="#2D3536" stroke-linecap="round" stroke-linejoin="round"/>
  <path d="M76.5625 57.8125H75C74.3784 57.8125 73.7823 58.0594 73.3427 58.499C72.9032 58.9385 72.6562 59.5346 72.6562 60.1562C72.6562 60.7779 72.9032 61.374 73.3427 61.8135C73.7823 62.2531 74.3784 62.5 75 62.5H76.5625C77.1841 62.5 77.7802 62.2531 78.2198 61.8135C78.6593 61.374 78.9062 60.7779 78.9062 60.1562C78.9062 59.5346 78.6593 58.9385 78.2198 58.499C77.7802 58.0594 77.1841 57.8125 76.5625 57.8125Z" fill="white" stroke="#2D3536" stroke-linecap="round" stroke-linejoin="round"/>
  <path d="M60.9375 65.625H57.8125" stroke="#2D3536" stroke-linecap="round" stroke-linejoin="round"/>
  <path d="M60.0223 46.875C59.4362 47.4608 58.6415 47.79 57.8129 47.79C56.9843 47.79 56.1895 47.4608 55.6035 46.875" stroke="#2D3536" stroke-linecap="round" stroke-linejoin="round"/>
  <path d="M54.6875 39.8438H51.5625C51.1481 39.8438 50.7507 40.0084 50.4576 40.3014C50.1646 40.5944 50 40.9918 50 41.4062V42.9688C50 43.3832 50.1646 43.7806 50.4576 44.0736C50.7507 44.3666 51.1481 44.5312 51.5625 44.5312H54.6875C55.1019 44.5312 55.4993 44.3666 55.7924 44.0736C56.0854 43.7806 56.25 43.3832 56.25 42.9688V41.4062C56.25 40.9918 56.0854 40.5944 55.7924 40.3014C55.4993 40.0084 55.1019 39.8438 54.6875 39.8438Z" fill="#2D3536" stroke="#2D3536" stroke-linecap="round" stroke-linejoin="round"/>
  <path d="M64.0625 39.8438H60.9375C60.5231 39.8438 60.1257 40.0084 59.8326 40.3014C59.5396 40.5944 59.375 40.9918 59.375 41.4062V42.9688C59.375 43.3832 59.5396 43.7806 59.8326 44.0736C60.1257 44.3666 60.5231 44.5312 60.9375 44.5312H64.0625C64.4769 44.5312 64.8743 44.3666 65.1674 44.0736C65.4604 43.7806 65.625 43.3832 65.625 42.9688V41.4062C65.625 40.9918 65.4604 40.5944 65.1674 40.3014C64.8743 40.0084 64.4769 39.8438 64.0625 39.8438Z" fill="#2D3536" stroke="#2D3536" stroke-linecap="round" stroke-linejoin="round"/>
  <path d="M64.0625 41.4062H63.2812" stroke="white" stroke-linecap="round" stroke-linejoin="round"/>
  <path d="M54.6875 41.4062H53.9062" stroke="white" stroke-linecap="round" stroke-linejoin="round"/>
  <path d="M56.25 42.1875H59.375" stroke="#2D3536" stroke-linecap="round" stroke-linejoin="round"/>
  <path d="M35.9375 31.25L10.9375 29.6875" stroke="#2D3536" stroke-linecap="round" stroke-linejoin="round"/>
  <path d="M17.5898 30.1031L35.7961 31.2406C35.4425 29.1579 34.3955 27.2557 32.8248 25.843C31.2542 24.4302 29.2521 23.5897 27.1437 23.458C25.0352 23.3263 22.9442 23.911 21.2099 25.1173C19.4756 26.3235 18.1999 28.0806 17.5898 30.1031Z" fill="#E7F0EF" stroke="#2D3536" stroke-linecap="round" stroke-linejoin="round"/>
  <path d="M95.3125 56.25C95.3125 55.0068 94.8186 53.8145 93.9396 52.9354C93.0605 52.0564 91.8682 51.5625 90.625 51.5625V56.25H85.9375C85.1087 56.25 84.3138 56.5792 83.7278 57.1653C83.1417 57.7513 82.8125 58.5462 82.8125 59.375C82.8125 59.7894 82.9771 60.1868 83.2701 60.4799C83.5632 60.7729 83.9606 60.9375 84.375 60.9375H92.1875C93.0163 60.9375 93.8112 60.6083 94.3972 60.0222C94.9833 59.4362 95.3125 58.6413 95.3125 57.8125V56.25Z" fill="white" stroke="#2D3536" stroke-linecap="round" stroke-linejoin="round"/>
  <path d="M92.1875 56.25H90.625" stroke="#2D3536" stroke-linecap="round" stroke-linejoin="round"/>
  <path d="M20.7031 36.7188C21.1175 36.7188 21.515 36.5541 21.808 36.2611C22.101 35.9681 22.2656 35.5707 22.2656 35.1562C22.2656 34.7418 22.101 34.3444 21.808 34.0514C21.515 33.7584 21.1175 33.5938 20.7031 33.5938C20.2887 33.5938 19.8913 33.7584 19.5983 34.0514C19.3052 34.3444 19.1406 34.7418 19.1406 35.1562C19.1406 35.5707 19.3052 35.9681 19.5983 36.2611C19.8913 36.5541 20.2887 36.7188 20.7031 36.7188Z" fill="#E7F0EF"/>
  <path d="M32.4219 36.7188C32.8363 36.7188 33.2337 36.5541 33.5267 36.2611C33.8198 35.9681 33.9844 35.5707 33.9844 35.1562C33.9844 34.7418 33.8198 34.3444 33.5267 34.0514C33.2337 33.7584 32.8363 33.5938 32.4219 33.5938C32.0075 33.5938 31.61 33.7584 31.317 34.0514C31.024 34.3444 30.8594 34.7418 30.8594 35.1562C30.8594 35.5707 31.024 35.9681 31.317 36.2611C31.61 36.5541 32.0075 36.7188 32.4219 36.7188Z" fill="#E7F0EF"/>
</svg>