<svg xmlns="http://www.w3.org/2000/svg" width="100" height="100" viewBox="0 0 100 100" fill="none">
  <path d="M7.53125 50C7.53125 60.6087 11.7455 70.7828 19.247 78.2843C26.7484 85.7857 36.9226 90 47.5312 90C58.1399 90 68.3141 85.7857 75.8155 78.2843C83.317 70.7828 87.5312 60.6087 87.5312 50C87.5312 39.3913 83.317 29.2172 75.8155 21.7157C68.3141 14.2143 58.1399 10 47.5312 10C36.9226 10 26.7484 14.2143 19.247 21.7157C11.7455 29.2172 7.53125 39.3913 7.53125 50Z" fill="#E7F0EF"/>
  <path d="M25.9004 79.053C25.9004 79.5827 27.4941 80.0906 30.331 80.4651C33.1679 80.8396 37.0155 81.05 41.0274 81.05C45.0393 81.05 48.8869 80.8396 51.7238 80.4651C54.5607 80.0906 56.1544 79.5827 56.1544 79.053C56.1544 78.5234 54.5607 78.0154 51.7238 77.6409C48.8869 77.2664 45.0393 77.056 41.0274 77.056C37.0155 77.056 33.1679 77.2664 30.331 77.6409C27.4941 78.0154 25.9004 78.5234 25.9004 79.053Z" fill="#CDE0DE"/>
  <path d="M70.4125 28.017C70.4125 27.3896 70.2889 26.7682 70.0488 26.1886C69.8087 25.6089 69.4568 25.0821 69.0131 24.6385C68.5694 24.1948 68.0427 23.8428 67.463 23.6027C66.8833 23.3626 66.262 23.239 65.6345 23.239H16.4235C15.1562 23.239 13.9408 23.7424 13.0446 24.6384C12.1484 25.5344 11.6448 26.7497 11.6445 28.017V60.637H70.4125V28.017Z" fill="#CDE0DE"/>
  <path d="M48.1513 74.884H33.9043L34.7943 67.76H47.2603L48.1513 74.884Z" fill="white"/>
  <path d="M48.1513 74.884H33.9043L34.7943 67.76H47.2603L48.1513 74.884Z" stroke="#2D3536" stroke-linecap="round" stroke-linejoin="round"/>
  <path d="M51.2288 78.445H30.8288C30.6447 78.448 30.4627 78.4047 30.2997 78.3191C30.1366 78.2335 29.9976 78.1083 29.8955 77.955C29.7934 77.8018 29.7314 77.6253 29.7152 77.4418C29.699 77.2584 29.7291 77.0738 29.8028 76.905C30.0934 76.2995 30.5492 75.7885 31.1177 75.4309C31.6862 75.0733 32.3442 74.8837 33.0158 74.884H49.0418C49.7133 74.8837 50.3712 75.0732 50.9396 75.4308C51.5079 75.7884 51.9635 76.2995 52.2538 76.905C52.3275 77.0737 52.3576 77.2582 52.3415 77.4416C52.3253 77.625 52.2634 77.8014 52.1614 77.9546C52.0594 78.1079 51.9206 78.2331 51.7577 78.3187C51.5947 78.4044 51.4129 78.4478 51.2288 78.445Z" fill="white" stroke="#2D3536" stroke-linecap="round" stroke-linejoin="round"/>
  <path d="M65.6345 67.76C66.262 67.76 66.8833 67.6364 67.463 67.3963C68.0427 67.1562 68.5694 66.8043 69.0131 66.3606C69.4568 65.9169 69.8087 65.3902 70.0488 64.8105C70.2889 64.2308 70.4125 63.6095 70.4125 62.982V60.637H11.6445V62.982C11.6448 64.2493 12.1484 65.4646 13.0446 66.3606C13.9408 67.2567 15.1562 67.76 16.4235 67.76H65.6345Z" fill="white" stroke="#2D3536" stroke-linecap="round" stroke-linejoin="round"/>
  <path d="M70.4125 28.017C70.4125 27.3896 70.2889 26.7682 70.0488 26.1886C69.8087 25.6089 69.4568 25.0821 69.0131 24.6385C68.5694 24.1948 68.0427 23.8428 67.463 23.6027C66.8833 23.3626 66.262 23.239 65.6345 23.239H16.4235C15.1562 23.239 13.9408 23.7424 13.0446 24.6384C12.1484 25.5344 11.6448 26.7497 11.6445 28.017V60.637H70.4125V28.017Z" stroke="#2D3536" stroke-linecap="round" stroke-linejoin="round"/>
  <path d="M39.8711 64.198C39.8711 64.5051 39.9931 64.7997 40.2103 65.0168C40.4274 65.234 40.722 65.356 41.0291 65.356C41.3362 65.356 41.6308 65.234 41.8479 65.0168C42.0651 64.7997 42.1871 64.5051 42.1871 64.198C42.1871 63.8909 42.0651 63.5963 41.8479 63.3792C41.6308 63.162 41.3362 63.04 41.0291 63.04C40.722 63.04 40.4274 63.162 40.2103 63.3792C39.9931 63.5963 39.8711 63.8909 39.8711 64.198Z" fill="#2D3536"/>
  <path d="M61.5099 52.148C61.5099 52.5657 61.3439 52.9663 61.0486 53.2617C60.7532 53.5571 60.3526 53.723 59.9349 53.723H22.1089C21.9028 53.7229 21.6988 53.682 21.5086 53.6026C21.3184 53.5232 21.1458 53.4069 21.0008 53.2605C20.8557 53.1141 20.7411 52.9404 20.6636 52.7495C20.586 52.5585 20.547 52.3541 20.5489 52.148V31.728C20.5489 31.3103 20.7148 30.9097 21.0102 30.6143C21.3056 30.319 21.7062 30.153 22.1239 30.153H59.9349C60.3526 30.153 60.7532 30.319 61.0486 30.6143C61.3439 30.9097 61.5099 31.3103 61.5099 31.728V52.148Z" fill="white"/>
  <path d="M61.5098 37.883V31.728C61.5098 31.3103 61.3439 30.9097 61.0485 30.6143C60.7532 30.319 60.3525 30.153 59.9348 30.153H22.1238C21.7061 30.153 21.3055 30.319 21.0101 30.6143C20.7148 30.9097 20.5488 31.3103 20.5488 31.728V37.883H61.5098Z" fill="#CDE0DE"/>
  <path d="M25.5098 41.51H56.5488V46.974H25.5098V41.51Z" stroke="#2D3536" stroke-linecap="round" stroke-linejoin="round"/>
  <path d="M20.5488 37.883H61.5098" stroke="#2D3536" stroke-linecap="round" stroke-linejoin="round"/>
  <path d="M61.5099 52.148C61.5099 52.5657 61.3439 52.9663 61.0486 53.2617C60.7532 53.5571 60.3526 53.723 59.9349 53.723H22.1089C21.9028 53.7229 21.6988 53.682 21.5086 53.6026C21.3184 53.5232 21.1458 53.4069 21.0008 53.2605C20.8557 53.1141 20.7411 52.9404 20.6636 52.7495C20.586 52.5585 20.547 52.3541 20.5489 52.148V31.728C20.5489 31.3103 20.7148 30.9097 21.0102 30.6143C21.3056 30.319 21.7062 30.153 22.1239 30.153H59.9349C60.3526 30.153 60.7532 30.319 61.0486 30.6143C61.3439 30.9097 61.5099 31.3103 61.5099 31.728V52.148Z" stroke="#2D3536" stroke-linecap="round" stroke-linejoin="round"/>
  <path d="M71.0156 42.626L74.2006 37.82L79.8066 41.534L76.6226 46.341L71.0156 42.626Z" fill="white" stroke="#2D3536" stroke-linecap="round" stroke-linejoin="round"/>
  <path d="M90.7479 47.631C91.5976 48.1943 92.1886 49.0721 92.3911 50.0712C92.5935 51.0703 92.3908 52.1089 91.8274 52.9585C91.2641 53.8081 90.3864 54.3992 89.3873 54.6016C88.3882 54.804 87.3496 54.6013 86.4999 54.038L76.8889 47.671C76.7838 47.6014 76.6934 47.5117 76.6229 47.4071C76.5524 47.3025 76.5032 47.185 76.4781 47.0614C76.4531 46.9378 76.4526 46.8105 76.4768 46.6867C76.5009 46.5629 76.5492 46.4451 76.6189 46.34L79.8029 41.534C79.8726 41.4288 79.9622 41.3384 80.0668 41.2679C80.1714 41.1975 80.2889 41.1483 80.4125 41.1232C80.5361 41.0981 80.6634 41.0977 80.7872 41.1218C80.911 41.146 81.0288 41.1943 81.1339 41.264L90.7479 47.631Z" fill="#CDE0DE"/>
  <path d="M90.7479 47.631C91.5976 48.1943 92.1886 49.0721 92.3911 50.0712C92.5935 51.0703 92.3908 52.1089 91.8274 52.9585C91.2641 53.8081 90.3864 54.3992 89.3873 54.6016C88.3882 54.804 87.3496 54.6013 86.4999 54.038L76.8889 47.671C76.7838 47.6014 76.6934 47.5117 76.6229 47.4071C76.5524 47.3025 76.5032 47.185 76.4781 47.0614C76.4531 46.9378 76.4526 46.8105 76.4768 46.6867C76.5009 46.5629 76.5492 46.4451 76.6189 46.34L79.8029 41.534C79.8726 41.4288 79.9622 41.3384 80.0668 41.2679C80.1714 41.1975 80.2889 41.1483 80.4125 41.1232C80.5361 41.0981 80.6634 41.0977 80.7872 41.1218C80.911 41.146 81.0288 41.1943 81.1339 41.264L90.7479 47.631Z" stroke="#2D3536" stroke-linecap="round" stroke-linejoin="round"/>
  <path d="M41.1602 30.067C41.1602 34.9547 43.1018 39.6422 46.5579 43.0983C50.014 46.5544 54.7015 48.496 59.5892 48.496C64.4768 48.496 69.1643 46.5544 72.6204 43.0983C76.0765 39.6422 78.0182 34.9547 78.0182 30.067C78.0182 25.1793 76.0765 20.4918 72.6204 17.0357C69.1643 13.5796 64.4768 11.638 59.5892 11.638C54.7015 11.638 50.014 13.5796 46.5579 17.0357C43.1018 20.4918 41.1602 25.1793 41.1602 30.067Z" fill="white"/>
  <path d="M41.1602 30.067C41.1602 34.9547 43.1018 39.6422 46.5579 43.0983C50.014 46.5544 54.7015 48.496 59.5892 48.496C64.4768 48.496 69.1643 46.5544 72.6204 43.0983C76.0765 39.6422 78.0182 34.9547 78.0182 30.067C78.0182 25.1793 76.0765 20.4918 72.6204 17.0357C69.1643 13.5796 64.4768 11.638 59.5892 11.638C54.7015 11.638 50.014 13.5796 46.5579 17.0357C43.1018 20.4918 41.1602 25.1793 41.1602 30.067Z" stroke="#2D3536" stroke-linecap="round" stroke-linejoin="round"/>
  <path d="M56.3448 44.16C60.0825 45.0424 64.0177 44.4038 67.2846 42.3848C70.5514 40.3658 72.8825 37.1317 73.7648 33.394C74.6472 29.6563 74.0087 25.7212 71.9896 22.4543C69.9706 19.1874 66.7365 16.8564 62.9988 15.974C59.2611 15.0916 55.326 15.7302 52.0591 17.7492C48.7922 19.7682 46.4612 23.0023 45.5788 26.74C44.6965 30.4777 45.335 34.4128 47.354 37.6797C49.3731 40.9466 52.6071 43.2776 56.3448 44.16Z" fill="#CDE0DE"/>
  <path d="M45.4324 32.708H65.3844V28.073C65.3844 27.459 65.1405 26.8702 64.7064 26.436C64.2722 26.0019 63.6834 25.758 63.0694 25.758H45.8434C45.147 28.0074 45.006 30.3921 45.4324 32.708Z" fill="#CDE0DE" stroke="#2D3536" stroke-linecap="round" stroke-linejoin="round"/>
  <path d="M45.4336 32.708C46.0127 35.8313 47.6025 38.6775 49.9583 40.8083C52.3141 42.9391 55.3051 44.2363 58.4706 44.5C58.8706 44.532 59.2706 44.55 59.6706 44.55C61.6349 44.5524 63.5789 44.1536 65.3836 43.378V32.708H45.4336Z" fill="white" stroke="#2D3536" stroke-linecap="round" stroke-linejoin="round"/>
  <path d="M58.4708 44.5V39.273C58.4708 38.9662 58.3489 38.6719 58.1319 38.4549C57.9149 38.2379 57.6206 38.116 57.3138 38.116H47.6348C48.8441 39.927 50.4466 41.4416 52.3229 42.5469C54.1991 43.6523 56.3006 44.3199 58.4708 44.5Z" stroke="#2D3536" stroke-linecap="round" stroke-linejoin="round"/>
  <path d="M56.3448 44.16C60.0825 45.0424 64.0177 44.4038 67.2846 42.3848C70.5514 40.3658 72.8825 37.1317 73.7648 33.394C74.6472 29.6563 74.0087 25.7212 71.9896 22.4543C69.9706 19.1874 66.7365 16.8564 62.9988 15.974C59.2611 15.0916 55.326 15.7302 52.0591 17.7492C48.7922 19.7682 46.4612 23.0023 45.5788 26.74C44.6965 30.4777 45.335 34.4128 47.354 37.6797C49.3731 40.9466 52.6071 43.2776 56.3448 44.16Z" stroke="#2D3536" stroke-linecap="round" stroke-linejoin="round"/>
  <path d="M22.957 34.131C22.957 34.5073 23.1065 34.8682 23.3726 35.1344C23.6388 35.4005 23.9997 35.55 24.376 35.55C24.7524 35.55 25.1133 35.4005 25.3794 35.1344C25.6455 34.8682 25.795 34.5073 25.795 34.131C25.795 33.7546 25.6455 33.3937 25.3794 33.1276C25.1133 32.8615 24.7524 32.712 24.376 32.712C23.9997 32.712 23.6388 32.8615 23.3726 33.1276C23.1065 33.3937 22.957 33.7546 22.957 34.131Z" fill="white" stroke="#2D3536" stroke-linecap="round" stroke-linejoin="round"/>
  <path d="M28.4941 34.131C28.4941 34.5073 28.6436 34.8683 28.9098 35.1344C29.1759 35.4005 29.5368 35.55 29.9131 35.55C30.2895 35.55 30.6504 35.4005 30.9165 35.1344C31.1826 34.8683 31.3321 34.5073 31.3321 34.131C31.3321 33.7547 31.1826 33.3937 30.9165 33.1276C30.6504 32.8615 30.2895 32.712 29.9131 32.712C29.5368 32.712 29.1759 32.8615 28.9098 33.1276C28.6436 33.3937 28.4941 33.7547 28.4941 34.131Z" fill="white" stroke="#2D3536" stroke-linecap="round" stroke-linejoin="round"/>
  <path d="M34.0293 34.131C34.0293 34.5073 34.1788 34.8682 34.4449 35.1344C34.711 35.4005 35.072 35.55 35.4483 35.55C35.8246 35.55 36.1856 35.4005 36.4517 35.1344C36.7178 34.8682 36.8673 34.5073 36.8673 34.131C36.8673 33.7546 36.7178 33.3937 36.4517 33.1276C36.1856 32.8615 35.8246 32.712 35.4483 32.712C35.072 32.712 34.711 32.8615 34.4449 33.1276C34.1788 33.3937 34.0293 33.7546 34.0293 34.131Z" fill="white" stroke="#2D3536" stroke-linecap="round" stroke-linejoin="round"/>
</svg>