<svg xmlns="http://www.w3.org/2000/svg" width="100" height="100" viewBox="0 0 100 100" fill="none">
  <path d="M90.0176 50C90.0183 44.0302 88.6828 38.1359 86.109 32.7494C83.5352 27.3629 79.7883 22.6208 75.1432 18.8709C70.498 15.121 65.0724 12.4584 59.2643 11.0784C53.4561 9.69834 47.4127 9.63587 41.5773 10.8955C35.7419 12.1552 30.2624 14.7051 25.5408 18.3582C20.8191 22.0112 16.975 26.6749 14.2904 32.007C11.6057 37.3391 10.1487 43.2046 10.026 49.1732C9.90338 55.1417 11.1183 61.0621 13.5816 66.5H86.4536C88.8064 61.3177 90.0217 55.6914 90.0176 50Z" fill="#E7F0EF"/>
  <path d="M11.0176 66.5H89.0176" stroke="#2D3536" stroke-linecap="round" stroke-linejoin="round"/>
  <path d="M6.51758 66.5H9.01758" stroke="#2D3536" stroke-linecap="round" stroke-linejoin="round"/>
  <path d="M91.0176 66.5H93.5176" stroke="#2D3536" stroke-linecap="round" stroke-linejoin="round"/>
  <path d="M43.6618 82.747C66.0688 82.747 84.2338 81.895 84.2338 80.845C84.2338 79.795 66.0688 78.943 43.6618 78.943C21.2548 78.943 3.08984 79.794 3.08984 80.845C3.08984 81.895 21.2548 82.747 43.6618 82.747Z" fill="#CDE0DE"/>
  <path d="M43.6611 68.166H11.3301V47.88C11.3303 47.2076 11.5976 46.5628 12.0732 46.0874C12.5488 45.612 13.1937 45.345 13.8661 45.345H41.1251C41.7975 45.345 42.4424 45.612 42.9179 46.0874C43.3935 46.5628 43.6608 47.2076 43.6611 47.88V68.166Z" fill="white"/>
  <path d="M43.6611 68.166H11.3301V47.88C11.3303 47.2076 11.5976 46.5628 12.0732 46.0874C12.5488 45.612 13.1937 45.345 13.8661 45.345H41.1251C41.7975 45.345 42.4424 45.612 42.9179 46.0874C43.3935 46.5628 43.6608 47.2076 43.6611 47.88V68.166Z" stroke="#2D3536" stroke-linecap="round" stroke-linejoin="round"/>
  <path d="M75.9902 68.166H43.6602V47.88C43.66 47.5467 43.7256 47.2167 43.8532 46.9088C43.9808 46.6009 44.1679 46.3212 44.4038 46.0857C44.6396 45.8503 44.9196 45.6636 45.2277 45.5365C45.5358 45.4094 45.8659 45.3443 46.1992 45.345H73.4592C74.1315 45.345 74.7763 45.6121 75.2517 46.0875C75.7271 46.5629 75.9942 47.2077 75.9942 47.88L75.9902 68.166Z" fill="white"/>
  <path d="M75.9902 68.166H43.6602V47.88C43.66 47.5467 43.7256 47.2167 43.8532 46.9088C43.9808 46.6009 44.1679 46.3212 44.4038 46.0857C44.6396 45.8503 44.9196 45.6636 45.2277 45.5365C45.5358 45.4094 45.8659 45.3443 46.1992 45.345H73.4592C74.1315 45.345 74.7763 45.6121 75.2517 46.0875C75.7271 46.5629 75.9942 47.2077 75.9942 47.88L75.9902 68.166Z" stroke="#2D3536" stroke-linecap="round" stroke-linejoin="round"/>
  <path d="M15.4001 79.577H12.3301C12.0649 79.577 11.8105 79.4716 11.623 79.2841C11.4354 79.0966 11.3301 78.8422 11.3301 78.577V77.042H16.4001V78.577C16.4001 78.8422 16.2947 79.0966 16.1072 79.2841C15.9196 79.4716 15.6653 79.577 15.4001 79.577Z" fill="#CDE0DE" stroke="#2D3536" stroke-linecap="round" stroke-linejoin="round"/>
  <path d="M74.9909 79.577H71.9199C71.6547 79.577 71.4004 79.4716 71.2128 79.2841C71.0253 79.0966 70.9199 78.8422 70.9199 78.577V77.042H75.9909V78.577C75.9909 78.8422 75.8856 79.0966 75.698 79.2841C75.5105 79.4716 75.2561 79.577 74.9909 79.577Z" fill="#CDE0DE" stroke="#2D3536" stroke-linecap="round" stroke-linejoin="round"/>
  <path d="M45.2 79.577H42.125C41.8598 79.577 41.6054 79.4716 41.4179 79.2841C41.2304 79.0966 41.125 78.8422 41.125 78.577V77.042H46.2V78.577C46.2 78.8422 46.0946 79.0966 45.9071 79.2841C45.7196 79.4716 45.4652 79.577 45.2 79.577Z" fill="#CDE0DE" stroke="#2D3536" stroke-linecap="round" stroke-linejoin="round"/>
  <path d="M75.9911 77.042H11.3301V68.166C11.3303 67.4936 11.5976 66.8488 12.0732 66.3734C12.5488 65.898 13.1937 65.631 13.8661 65.631H73.4561C74.1284 65.631 74.7732 65.8981 75.2486 66.3735C75.724 66.8489 75.9911 67.4937 75.9911 68.166V77.042Z" fill="white"/>
  <path d="M75.9911 77.042H11.3301V68.166C11.3303 67.4936 11.5976 66.8488 12.0732 66.3734C12.5488 65.898 13.1937 65.631 13.8661 65.631H73.4561C74.1284 65.631 74.7732 65.8981 75.2486 66.3735C75.724 66.8489 75.9911 67.4937 75.9911 68.166V77.042Z" stroke="#2D3536" stroke-linecap="round" stroke-linejoin="round"/>
  <path d="M6.25823 77.042H11.3302V59.29H7.53023C7.19694 59.2897 6.86686 59.3551 6.55883 59.4824C6.25081 59.6097 5.97087 59.7965 5.73501 60.032C5.49915 60.2674 5.31198 60.5471 5.18419 60.8549C5.0564 61.1627 4.9905 61.4927 4.99023 61.826V75.773C4.99023 75.9395 5.02303 76.1044 5.08676 76.2582C5.15048 76.4121 5.24388 76.5519 5.36162 76.6696C5.47937 76.7874 5.61915 76.8808 5.77299 76.9445C5.92683 77.0082 6.09172 77.042 6.25823 77.042Z" fill="white"/>
  <path d="M6.25823 77.042H11.3302V59.29H7.53023C7.19694 59.2897 6.86686 59.3551 6.55883 59.4824C6.25081 59.6097 5.97087 59.7965 5.73501 60.032C5.49915 60.2674 5.31198 60.5471 5.18419 60.8549C5.0564 61.1627 4.9905 61.4927 4.99023 61.826V75.773C4.99023 75.9395 5.02303 76.1044 5.08676 76.2582C5.15048 76.4121 5.24388 76.5519 5.36162 76.6696C5.47937 76.7874 5.61915 76.8808 5.77299 76.9445C5.92683 77.0082 6.09172 77.042 6.25823 77.042Z" stroke="#2D3536" stroke-linecap="round" stroke-linejoin="round"/>
  <path d="M82.3302 75.774C82.3302 76.1103 82.1966 76.4328 81.9588 76.6706C81.7211 76.9084 81.3985 77.042 81.0622 77.042H75.9902V59.29H79.7902C80.4628 59.29 81.1079 59.5572 81.5835 60.0328C82.0591 60.5083 82.3262 61.1534 82.3262 61.826L82.3302 75.774Z" fill="white"/>
  <path d="M82.3302 75.774C82.3302 76.1103 82.1966 76.4328 81.9588 76.6706C81.7211 76.9084 81.3985 77.042 81.0622 77.042H75.9902V59.29H79.7902C80.4628 59.29 81.1079 59.5572 81.5835 60.0328C82.0591 60.5083 82.3262 61.1534 82.3262 61.826L82.3302 75.774Z" stroke="#2D3536" stroke-linecap="round" stroke-linejoin="round"/>
  <path d="M55.7042 81.794C55.7042 82.2143 55.5372 82.6173 55.2401 82.9144C54.9429 83.2116 54.5399 83.3785 54.1197 83.3785C53.6994 83.3785 53.2964 83.2116 52.9992 82.9144C52.7021 82.6173 52.5352 82.2143 52.5352 81.794V66.9H55.7042V81.794Z" fill="white"/>
  <path d="M55.7042 81.794C55.7042 82.2143 55.5372 82.6173 55.2401 82.9144C54.9429 83.2116 54.5399 83.3785 54.1197 83.3785C53.6994 83.3785 53.2964 83.2116 52.9992 82.9144C52.7021 82.6173 52.5352 82.2143 52.5352 81.794V66.9H55.7042V81.794Z" stroke="#2D3536" stroke-linecap="round" stroke-linejoin="round"/>
  <path d="M90.5721 66.897H55.7051V70.7H90.5721V66.897Z" fill="white"/>
  <path d="M90.5721 66.897H55.7051V70.7H90.5721V66.897Z" stroke="#2D3536" stroke-linecap="round" stroke-linejoin="round"/>
  <path d="M96.9117 65.629C96.9121 65.7957 96.8797 65.9607 96.8162 66.1148C96.7527 66.2689 96.6594 66.4089 96.5417 66.5269C96.424 66.6448 96.2842 66.7384 96.1303 66.8023C95.9764 66.8661 95.8114 66.899 95.6447 66.899H50.6347C50.3047 66.8897 49.9914 66.7521 49.7612 66.5154C49.5311 66.2788 49.4023 65.9616 49.4023 65.6315C49.4023 65.3014 49.5311 64.9843 49.7612 64.7476C49.9914 64.5109 50.3047 64.3733 50.6347 64.364H95.6447C95.9804 64.364 96.3024 64.4972 96.5399 64.7344C96.7775 64.9716 96.9112 65.2933 96.9117 65.629Z" fill="#CDE0DE" stroke="#2D3536" stroke-linecap="round" stroke-linejoin="round"/>
  <path d="M55.7042 81.794C55.7042 82.2143 55.5372 82.6173 55.2401 82.9144C54.9429 83.2116 54.5399 83.3785 54.1197 83.3785C53.6994 83.3785 53.2964 83.2116 52.9992 82.9144C52.7021 82.6173 52.5352 82.2143 52.5352 81.794V80.21H55.7042V81.794Z" fill="#CDE0DE" stroke="#2D3536" stroke-linecap="round" stroke-linejoin="round"/>
  <path d="M93.7423 81.794C93.7423 82.2144 93.5753 82.6175 93.278 82.9148C92.9808 83.212 92.5776 83.379 92.1573 83.379C91.7369 83.379 91.3337 83.212 91.0365 82.9148C90.7393 82.6175 90.5723 82.2144 90.5723 81.794V66.9H93.7423V81.794Z" fill="white"/>
  <path d="M93.7423 81.794C93.7423 82.2144 93.5753 82.6175 93.278 82.9148C92.9808 83.212 92.5776 83.379 92.1573 83.379C91.7369 83.379 91.3337 83.212 91.0365 82.9148C90.7393 82.6175 90.5723 82.2144 90.5723 81.794V66.9H93.7423V81.794Z" stroke="#2D3536" stroke-linecap="round" stroke-linejoin="round"/>
  <path d="M93.7423 81.794C93.7423 82.2144 93.5753 82.6175 93.278 82.9148C92.9808 83.212 92.5776 83.379 92.1573 83.379C91.7369 83.379 91.3337 83.212 91.0365 82.9148C90.7393 82.6175 90.5723 82.2144 90.5723 81.794V80.21H93.7423V81.794Z" fill="#CDE0DE" stroke="#2D3536" stroke-linecap="round" stroke-linejoin="round"/>
  <path d="M93.1083 60.558H79.1613C78.9932 60.558 78.8319 60.6248 78.713 60.7437C78.5941 60.8626 78.5273 61.0238 78.5273 61.192V63.728C78.5273 64.078 78.8113 64.362 79.1613 64.362H93.1083C93.4583 64.362 93.7423 64.078 93.7423 63.728V61.192C93.7423 61.0238 93.6755 60.8626 93.5566 60.7437C93.4377 60.6248 93.2765 60.558 93.1083 60.558Z" fill="white" stroke="#2D3536" stroke-linecap="round" stroke-linejoin="round"/>
  <path d="M83.5985 60.558H81.0625V64.362H83.5985V60.558Z" fill="#CDE0DE" stroke="#2D3536" stroke-linecap="round" stroke-linejoin="round"/>
  <path d="M90.5712 56.754H76.6242C76.4561 56.754 76.2948 56.8208 76.1759 56.9397C76.057 57.0586 75.9902 57.2199 75.9902 57.388V59.924C75.9902 60.274 76.2742 60.558 76.6242 60.558H90.5712C90.9212 60.558 91.2052 60.274 91.2052 59.924V57.388C91.2052 57.2199 91.1384 57.0586 91.0195 56.9397C90.9006 56.8208 90.7394 56.754 90.5712 56.754Z" fill="white" stroke="#2D3536" stroke-linecap="round" stroke-linejoin="round"/>
  <path d="M81.0633 56.754H78.5273V60.558H81.0633V56.754Z" fill="#CDE0DE" stroke="#2D3536" stroke-linecap="round" stroke-linejoin="round"/>
  <path d="M74.6342 49.501L70.1702 62.713C70.1435 62.7919 70.1326 62.8753 70.1381 62.9585C70.1437 63.0416 70.1656 63.1228 70.2025 63.1975C70.2395 63.2722 70.2908 63.3388 70.3536 63.3936C70.4163 63.4485 70.4892 63.4904 70.5682 63.517L72.9702 64.329C73.0491 64.3557 73.1325 64.3666 73.2156 64.361C73.2988 64.3555 73.38 64.3336 73.4547 64.2966C73.5293 64.2597 73.596 64.2084 73.6508 64.1456C73.7056 64.0829 73.7476 64.0099 73.7742 63.931L78.2392 50.719C78.2928 50.5597 78.281 50.3857 78.2064 50.2351C78.1318 50.0845 78.0004 49.9698 77.8412 49.916L75.4392 49.104C75.3603 49.0773 75.277 49.0663 75.1939 49.0718C75.1108 49.0773 75.0296 49.0991 74.9549 49.136C74.8803 49.1728 74.8136 49.224 74.7587 49.2867C74.7039 49.3493 74.6609 49.4221 74.6342 49.501Z" fill="white" stroke="#2D3536" stroke-linecap="round" stroke-linejoin="round"/>
  <path d="M74.0268 51.3L73.2148 53.703L76.8178 54.921L77.6298 52.518L74.0268 51.3Z" fill="#CDE0DE" stroke="#2D3536" stroke-linecap="round" stroke-linejoin="round"/>
  <path d="M60.7764 61.827H56.9764C56.6434 61.8272 56.3136 61.7616 56.0059 61.6342C55.6982 61.5068 55.4187 61.32 55.1832 61.0845C54.9478 60.8489 54.7611 60.5693 54.6338 60.2616C54.5065 59.9539 54.4411 59.624 54.4414 59.291V55.491C54.4414 55.1549 54.5749 54.8325 54.8124 54.5948C55.05 54.357 55.3723 54.2233 55.7084 54.223H62.0484C62.3847 54.223 62.7072 54.3566 62.945 54.5944C63.1828 54.8322 63.3164 55.1547 63.3164 55.491V59.291C63.3164 59.6244 63.2507 59.9545 63.123 60.2624C62.9953 60.5704 62.8081 60.8501 62.5722 61.0857C62.3363 61.3212 62.0563 61.5079 61.7481 61.6351C61.44 61.7623 61.1098 61.8275 60.7764 61.827Z" fill="white"/>
  <path d="M60.7764 61.827H56.9764C56.6434 61.8272 56.3136 61.7616 56.0059 61.6342C55.6982 61.5068 55.4187 61.32 55.1832 61.0845C54.9478 60.8489 54.7611 60.5693 54.6338 60.2616C54.5065 59.9539 54.4411 59.624 54.4414 59.291V55.491C54.4414 55.1549 54.5749 54.8325 54.8124 54.5948C55.05 54.357 55.3723 54.2233 55.7084 54.223H62.0484C62.3847 54.223 62.7072 54.3566 62.945 54.5944C63.1828 54.8322 63.3164 55.1547 63.3164 55.491V59.291C63.3164 59.6244 63.2507 59.9545 63.123 60.2624C62.9953 60.5704 62.8081 60.8501 62.5722 61.0857C62.3363 61.3212 62.0563 61.5079 61.7481 61.6351C61.44 61.7623 61.1098 61.8275 60.7764 61.827Z" stroke="#2D3536" stroke-linecap="round" stroke-linejoin="round"/>
  <path d="M63.3125 55.488H64.2805C64.6961 55.488 65.0947 55.6531 65.3885 55.9469C65.6824 56.2408 65.8475 56.6394 65.8475 57.055C65.8472 57.3457 65.7661 57.6306 65.6131 57.8779C65.4602 58.1251 65.2415 58.3249 64.9815 58.455L63.3125 59.289" stroke="#2D3536" stroke-linecap="round" stroke-linejoin="round"/>
  <path d="M64.6475 62.96C64.4367 63.381 64.1129 63.7349 63.7123 63.9822C63.3117 64.2294 62.8502 64.3603 62.3795 64.36H55.3714C54.9007 64.3603 54.4392 64.2294 54.0386 63.9822C53.638 63.7349 53.3142 63.381 53.1034 62.96C53.0441 62.8407 53.0162 62.7081 53.0223 62.5749C53.0285 62.4418 53.0684 62.3124 53.1385 62.199C53.2086 62.0855 53.3064 61.9919 53.4228 61.9268C53.5391 61.8617 53.6701 61.8274 53.8035 61.827H63.9474C64.0808 61.8276 64.2118 61.8621 64.3281 61.9273C64.4444 61.9925 64.5422 62.0862 64.6123 62.1997C64.6823 62.3132 64.7223 62.4426 64.7285 62.5758C64.7346 62.709 64.7067 62.8406 64.6475 62.96Z" fill="white" stroke="#2D3536" stroke-linecap="round" stroke-linejoin="round"/>
  <path d="M61.9509 42.449C61.3514 42.2442 60.7019 42.2384 60.0988 42.4324C59.4958 42.6264 58.9714 43.0099 58.6038 43.5258C58.2362 44.0417 58.045 44.6625 58.0585 45.2958C58.072 45.9292 58.2896 46.5412 58.6789 47.041C58.6589 47.05 58.6389 47.054 58.6189 47.063C58.3178 47.2113 58.0652 47.4424 57.8906 47.7291C57.716 48.0158 57.6267 48.3462 57.6331 48.6818C57.6396 49.0174 57.7414 49.3443 57.9268 49.6241C58.1122 49.9039 58.3735 50.1251 58.6801 50.2618C58.9866 50.3986 59.3258 50.4451 59.6578 50.3961C59.9899 50.3471 60.3011 50.2045 60.5551 49.9851C60.8091 49.7656 60.9953 49.4784 61.092 49.1569C61.1886 48.8355 61.1917 48.4931 61.1009 48.17C61.7901 48.15 62.4503 47.8884 62.9661 47.4308C63.4819 46.9733 63.8204 46.349 63.9224 45.6671C64.0244 44.9852 63.8834 44.2891 63.5241 43.7007C63.1648 43.1122 62.6101 42.6688 61.9569 42.448H61.9519L61.9509 42.449Z" fill="white" stroke="#2D3536" stroke-linecap="round" stroke-linejoin="round"/>
  <path d="M55.7282 41.54C55.9815 41.5458 56.2335 41.5009 56.4693 41.408C56.7051 41.315 56.9199 41.1759 57.1012 40.9988C57.2824 40.8216 57.4265 40.61 57.5248 40.3764C57.6231 40.1428 57.6738 39.892 57.6738 39.6385C57.6738 39.3851 57.6231 39.1342 57.5248 38.9006C57.4265 38.667 57.2824 38.4554 57.1012 38.2783C56.9199 38.1011 56.7051 37.962 56.4693 37.869C56.2335 37.7761 55.9815 37.7312 55.7282 37.737C55.2237 37.737 54.7399 37.9374 54.3833 38.2941C54.0266 38.6508 53.8262 39.1346 53.8262 39.639C53.8262 40.1435 54.0266 40.6272 54.3833 40.9839C54.7399 41.3406 55.2237 41.54 55.7282 41.54Z" fill="white" stroke="#2D3536" stroke-linecap="round" stroke-linejoin="round"/>
  <path d="M26.5435 59.29V40.76C25.1657 41.8207 24.0493 43.1829 23.28 44.7422C22.5107 46.3015 22.1089 48.0163 22.1055 49.755V55.482C22.1052 56.4907 22.5052 57.4582 23.2177 58.1721C23.9302 58.8861 24.8968 59.2882 25.9055 59.29H26.5435Z" fill="white" stroke="#2D3536" stroke-linecap="round" stroke-linejoin="round"/>
  <path d="M40.4909 40.764C38.4973 39.2132 36.0436 38.3713 33.5179 38.3713C30.9922 38.3713 28.5385 39.2132 26.5449 40.764V61.19H40.4909V40.764Z" fill="white"/>
  <path d="M40.4909 40.764C38.4973 39.2132 36.0436 38.3713 33.5179 38.3713C30.9922 38.3713 28.5385 39.2132 26.5449 40.764V61.19H40.4909V40.764Z" stroke="#2D3536" stroke-linecap="round" stroke-linejoin="round"/>
  <path d="M36.6272 38.815C36.4161 38.7567 36.2299 38.6307 36.0973 38.4564C35.9647 38.2821 35.893 38.069 35.8933 37.85V34.36H31.1833V37.84C31.1831 38.0591 31.111 38.2721 30.9781 38.4463C30.8451 38.6205 30.6586 38.7461 30.4473 38.804C30.2238 38.8656 30.0017 38.9322 29.7812 39.004C29.9753 40.149 31.4422 42.409 32.4812 43.897C32.5978 44.0649 32.7533 44.2021 32.9344 44.2968C33.1155 44.3916 33.3169 44.4411 33.5212 44.4411C33.7256 44.4411 33.927 44.3916 34.1081 44.2968C34.2892 44.2021 34.4447 44.0649 34.5613 43.897C35.5983 42.409 37.0613 40.149 37.2613 39.004C37.0513 38.934 36.8392 38.872 36.6272 38.815Z" fill="white" stroke="#2D3536" stroke-linecap="round" stroke-linejoin="round"/>
  <path d="M40.4902 59.29V40.76C41.8679 41.8207 42.9842 43.1829 43.7533 44.7422C44.5225 46.3015 44.9241 48.0163 44.9272 49.755V55.482C44.9272 56.4906 44.5271 57.4579 43.8147 58.1718C43.1023 58.8858 42.1358 59.2879 41.1272 59.29H40.4902Z" fill="white" stroke="#2D3536" stroke-linecap="round" stroke-linejoin="round"/>
  <path d="M41.1251 61.825C41.1251 62.8328 40.7247 63.7994 40.0121 64.512C39.2994 65.2247 38.3329 65.625 37.3251 65.625H29.7141C28.7062 65.625 27.7397 65.2247 27.0271 64.512C26.3144 63.7994 25.9141 62.8328 25.9141 61.825V59.29H41.1241L41.1251 61.825Z" fill="#CDE0DE" stroke="#2D3536" stroke-linecap="round" stroke-linejoin="round"/>
  <path d="M32.2266 64.1C32.3053 63.2751 32.0579 62.4522 31.5373 61.8075C31.0168 61.1627 30.2645 60.7475 29.4415 60.6506C28.6185 60.5537 27.7903 60.7829 27.1343 61.2892C26.4783 61.7954 26.0465 62.5384 25.9316 63.359L24.2266 77.839L30.5266 78.579L32.2266 64.1Z" fill="#CDE0DE" stroke="#2D3536" stroke-linecap="round" stroke-linejoin="round"/>
  <path d="M30.0044 79.577C30.2218 79.5789 30.4361 79.5248 30.6265 79.4198C30.817 79.3147 30.9771 79.1624 31.0915 78.9775C31.2059 78.7925 31.2707 78.5812 31.2796 78.3639C31.2885 78.1466 31.2412 77.9307 31.1424 77.737C30.8137 77.1415 30.3313 76.6451 29.7454 76.2996C29.1595 75.9542 28.4916 75.7723 27.8114 75.773H27.1784C26.4981 75.7724 25.8301 75.9544 25.2442 76.3001C24.6583 76.6457 24.1759 77.1423 23.8474 77.738C23.7485 77.9316 23.7011 78.1475 23.71 78.3648C23.7189 78.582 23.7837 78.7933 23.8981 78.9782C24.0126 79.1631 24.1727 79.3154 24.3632 79.4203C24.5537 79.5251 24.7679 79.5791 24.9854 79.577H30.0044Z" fill="white" stroke="#2D3536" stroke-linecap="round" stroke-linejoin="round"/>
  <path d="M34.8088 64.1C34.7602 63.6864 34.7935 63.2672 34.9068 62.8664C35.0202 62.4656 35.2114 62.091 35.4695 61.7641C35.7276 61.4372 36.0475 61.1643 36.4111 60.9611C36.7746 60.7578 37.1747 60.6282 37.5883 60.5795C38.002 60.5309 38.4212 60.5642 38.822 60.6775C39.2228 60.7909 39.5973 60.982 39.9242 61.2401C40.2511 61.4982 40.524 61.8182 40.7273 62.1818C40.9305 62.5453 41.0602 62.9454 41.1088 63.359L42.8138 77.839L36.5138 78.579L34.8088 64.1Z" fill="#CDE0DE" stroke="#2D3536" stroke-linecap="round" stroke-linejoin="round"/>
  <path d="M37.0292 79.577C36.8118 79.5788 36.5976 79.5245 36.4073 79.4194C36.217 79.3143 36.0571 79.1619 35.9428 78.977C35.8285 78.7921 35.7638 78.5808 35.755 78.3636C35.7461 78.1464 35.7933 77.9306 35.8922 77.737C36.2207 77.1416 36.703 76.6453 37.2887 76.2999C37.8745 75.9544 38.5422 75.7725 39.2222 75.773H39.8562C40.5363 75.7726 41.204 75.9547 41.7898 76.3003C42.3755 76.646 42.8577 77.1425 43.1862 77.738C43.285 77.9316 43.3323 78.1473 43.3235 78.3645C43.3147 78.5817 43.25 78.7929 43.1357 78.9778C43.0214 79.1626 42.8613 79.3149 42.671 79.4199C42.4807 79.5248 42.2665 79.579 42.0492 79.577H37.0292Z" fill="white" stroke="#2D3536" stroke-linecap="round" stroke-linejoin="round"/>
  <path d="M39.6028 38.13C40.1075 38.1382 40.6088 38.0458 41.0774 37.8584C41.546 37.6709 41.9727 37.392 42.3324 37.038C42.6922 36.684 42.978 36.262 43.173 35.7965C43.3681 35.3309 43.4685 34.8312 43.4685 34.3265C43.4685 33.8218 43.3681 33.3221 43.173 32.8565C42.978 32.391 42.6922 31.9689 42.3324 31.6149C41.9727 31.2609 41.546 30.9821 41.0774 30.7946C40.6088 30.6071 40.1075 30.5148 39.6028 30.523C38.5939 30.523 37.6264 30.9238 36.913 31.6372C36.1996 32.3505 35.7988 33.3181 35.7988 34.327C35.7988 35.3359 36.1996 36.3034 36.913 37.0168C37.6264 37.7302 38.5939 38.13 39.6028 38.13Z" fill="white" stroke="#2D3536" stroke-linecap="round" stroke-linejoin="round"/>
  <path d="M33.5176 37.37C35.1314 37.3663 36.7018 36.8476 38.0004 35.8895C39.299 34.9314 40.2579 33.5838 40.7376 32.043H40.7446C43.1496 32.043 43.2946 28.243 41.1246 28.243V26.72C41.1246 25.721 40.9278 24.7318 40.5455 23.8089C40.1632 22.886 39.6029 22.0474 38.8965 21.341C38.1902 20.6346 37.3516 20.0743 36.4286 19.692C35.5057 19.3097 34.5165 19.113 33.5176 19.113C32.5186 19.113 31.5294 19.3097 30.6065 19.692C29.6836 20.0743 28.845 20.6346 28.1386 21.341C27.4322 22.0474 26.8719 22.886 26.4896 23.8089C26.1073 24.7318 25.9106 25.721 25.9106 26.72V28.24C23.7396 28.24 23.8856 32.04 26.2906 32.04H26.2966C26.7763 33.5811 27.7351 34.9289 29.0336 35.8875C30.3321 36.8461 31.9026 37.3654 33.5166 37.37H33.5176Z" fill="white" stroke="#2D3536" stroke-linecap="round" stroke-linejoin="round"/>
  <path d="M30.4751 30.713C30.4753 30.8129 30.4557 30.9119 30.4176 31.0043C30.3795 31.0967 30.3235 31.1806 30.2529 31.2514C30.1824 31.3222 30.0986 31.3783 30.0063 31.4167C29.914 31.4551 29.8151 31.4749 29.7151 31.475C29.6152 31.4751 29.5162 31.4556 29.4238 31.4175C29.3314 31.3793 29.2475 31.3234 29.1767 31.2528C29.106 31.1822 29.0498 31.0984 29.0114 31.0062C28.9731 30.9139 28.9533 30.8149 28.9531 30.715C28.9529 30.5132 29.0328 30.3195 29.1753 30.1766C29.3178 30.0337 29.5113 29.9533 29.7131 29.953C29.915 29.9527 30.1086 30.0327 30.2515 30.1752C30.3944 30.3177 30.4749 30.5112 30.4751 30.713Z" fill="#CDE0DE"/>
  <path d="M38.0825 30.713C38.0827 30.8129 38.0631 30.9119 38.025 31.0043C37.9869 31.0967 37.9309 31.1806 37.8604 31.2514C37.7898 31.3222 37.706 31.3783 37.6137 31.4167C37.5214 31.4551 37.4225 31.4749 37.3225 31.475C37.2226 31.4751 37.1236 31.4556 37.0312 31.4175C36.9389 31.3793 36.8549 31.3234 36.7841 31.2528C36.7134 31.1822 36.6572 31.0984 36.6189 31.0062C36.5805 30.9139 36.5607 30.8149 36.5605 30.715C36.5603 30.5132 36.6402 30.3195 36.7827 30.1766C36.9253 30.0337 37.1187 29.9533 37.3205 29.953C37.5224 29.9527 37.716 30.0327 37.8589 30.1752C38.0019 30.3177 38.0823 30.5112 38.0825 30.713Z" fill="#CDE0DE"/>
  <path d="M31.6152 32.875C32.178 33.2498 32.8391 33.4497 33.5152 33.4497C34.1914 33.4497 34.8524 33.2498 35.4152 32.875" stroke="#2D3536" stroke-linecap="round" stroke-linejoin="round"/>
  <path d="M33.5184 16.62C31.3008 16.6261 29.1757 17.5098 27.6077 19.078C26.0397 20.6462 25.1562 22.7714 25.1504 24.989V28.716C25.9374 28.716 28.8574 26.08 29.6274 23.611C29.7237 23.3024 29.9343 23.0424 30.2162 22.8841C30.4981 22.7259 30.8298 22.6815 31.1434 22.76C34.9133 23.8866 38.5236 25.491 41.8864 27.534V24.989C41.8865 23.8901 41.6702 22.8019 41.2497 21.7865C40.8292 20.7712 40.2128 19.8487 39.4358 19.0716C38.6587 18.2946 37.7362 17.6782 36.7208 17.2577C35.7055 16.8372 34.6173 16.6199 33.5184 16.62Z" fill="white"/>
  <path d="M33.5184 16.62C31.3008 16.6261 29.1757 17.5098 27.6077 19.078C26.0397 20.6462 25.1562 22.7714 25.1504 24.989V28.716C25.9374 28.716 28.8574 26.08 29.6274 23.611C29.7237 23.3024 29.9343 23.0424 30.2162 22.8841C30.4981 22.7259 30.8298 22.6815 31.1434 22.76C34.9133 23.8866 38.5236 25.491 41.8864 27.534V24.989C41.8865 23.8901 41.6702 22.8019 41.2497 21.7865C40.8292 20.7712 40.2128 19.8487 39.4358 19.0716C38.6587 18.2946 37.7362 17.6782 36.7208 17.2577C35.7055 16.8372 34.6173 16.6199 33.5184 16.62Z" stroke="#2D3536" stroke-linecap="round" stroke-linejoin="round"/>
  <path d="M30.0938 28.5C30.2957 28.2984 30.5694 28.1851 30.8547 28.1851C31.1401 28.1851 31.4138 28.2984 31.6157 28.5" stroke="#2D3536" stroke-linecap="round" stroke-linejoin="round"/>
  <path d="M35.4199 28.5C35.6219 28.2984 35.8956 28.1851 36.1809 28.1851C36.4663 28.1851 36.74 28.2984 36.9419 28.5" stroke="#2D3536" stroke-linecap="round" stroke-linejoin="round"/>
  <path d="M43.6594 60.558H23.3754C23.0391 60.558 22.7166 60.4244 22.4788 60.1866C22.241 59.9488 22.1074 59.6263 22.1074 59.29V58.656C22.1074 58.4878 22.1742 58.3266 22.2931 58.2077C22.412 58.0888 22.5733 58.022 22.7414 58.022H44.2994C44.4676 58.022 44.6288 58.0888 44.7477 58.2077C44.8666 58.3266 44.9334 58.4878 44.9334 58.656V59.29C44.9337 59.457 44.9009 59.6224 44.837 59.7767C44.773 59.931 44.6792 60.0711 44.5609 60.1889C44.4425 60.3068 44.302 60.4001 44.1475 60.4634C43.993 60.5268 43.8264 60.5589 43.6594 60.558Z" fill="white" stroke="#2D3536" stroke-linecap="round" stroke-linejoin="round"/>
  <path d="M43.6594 45.343H23.3754C22.6754 45.343 22.1074 45.91 22.1074 46.611V56.754C22.1074 57.454 22.6754 58.022 23.3754 58.022H43.6594C44.3594 58.022 44.9274 57.454 44.9274 56.754V46.61C44.9274 45.91 44.3594 45.343 43.6594 45.343Z" fill="white"/>
  <path d="M43.6594 45.343H23.3754C22.6754 45.343 22.1074 45.91 22.1074 46.611V56.754C22.1074 57.454 22.6754 58.022 23.3754 58.022H43.6594C44.3594 58.022 44.9274 57.454 44.9274 56.754V46.61C44.9274 45.91 44.3594 45.343 43.6594 45.343Z" stroke="#2D3536" stroke-linecap="round" stroke-linejoin="round"/>
  <path d="M33.5172 54.218C34.0217 54.218 34.5055 54.0176 34.8622 53.6609C35.2188 53.3042 35.4192 52.8204 35.4192 52.316C35.4192 51.8116 35.2188 51.3278 34.8622 50.9711C34.5055 50.6144 34.0217 50.414 33.5172 50.414C33.0128 50.414 32.529 50.6144 32.1723 50.9711C31.8156 51.3278 31.6152 51.8116 31.6152 52.316C31.6152 52.8204 31.8156 53.3042 32.1723 53.6609C32.529 54.0176 33.0128 54.218 33.5172 54.218Z" fill="#CDE0DE" stroke="#2D3536" stroke-linecap="round" stroke-linejoin="round"/>
  <path d="M34.1496 48.51L33.5176 49.147V50.415" stroke="#2D3536" stroke-linecap="round" stroke-linejoin="round"/>
</svg>