<svg xmlns="http://www.w3.org/2000/svg" width="23" height="22" viewBox="0 0 23 22" fill="none">
  <path d="M13.75 6.25L13.2805 7.133C13.4995 7.24942 13.754 7.28028 13.9946 7.21957C14.2351 7.15886 14.4444 7.01093 14.582 6.8045L13.75 6.25ZM16.25 2.5L17.082 3.055C17.2137 2.85747 17.2708 2.61953 17.2432 2.38373C17.2155 2.14794 17.1048 1.92968 16.931 1.768L16.25 2.5ZM21 9.5L21.998 9.4335C21.9811 9.18032 21.8686 8.94302 21.6833 8.76969C21.498 8.59635 21.2537 8.49995 21 8.5V9.5ZM11 9.5V8.5C10.7348 8.5 10.4804 8.60536 10.2929 8.79289C10.1054 8.98043 10 9.23478 10 9.5H11ZM11 13H10C10 13.2652 10.1054 13.5196 10.2929 13.7071C10.4804 13.8946 10.7348 14 11 14V13ZM15.75 13H16.75C16.75 12.7348 16.6446 12.4804 16.4571 12.2929C16.2696 12.1054 16.0152 12 15.75 12V13ZM14.582 6.8045L17.082 3.055L15.418 1.945L12.918 5.695L14.582 6.8045ZM16.25 2.5C16.4783 2.25718 16.705 2.01284 16.93 1.767L16.9295 1.766C16.9273 1.76387 16.9249 1.76186 16.9225 1.76C16.9092 1.74755 16.8956 1.73554 16.8815 1.724C16.7533 1.61768 16.6191 1.51885 16.4795 1.428C16.1078 1.18994 15.7144 0.9877 15.3045 0.824C14.259 0.398 12.6925 0 10.5 0V2C12.445 2 13.754 2.352 14.5495 2.676C14.8417 2.79179 15.1223 2.93493 15.3875 3.1035C15.454 3.14657 15.5182 3.19296 15.58 3.2425L15.579 3.2415L15.575 3.238C15.574 3.23701 15.573 3.23602 15.572 3.235L15.5705 3.2335C15.7955 2.98757 16.022 2.74307 16.25 2.5ZM10.5 0C8.153 0 5.545 1.0505 3.526 2.885C1.489 4.735 0 7.43 0 10.75H2C2 8.0695 3.192 5.89 4.8705 4.365C6.567 2.825 8.7085 2 10.5 2V0ZM0 10.75C0 17.6 5.4965 22 11 22V20C6.5035 20 2 16.4 2 10.75H0ZM21 9.5V8.5H11V10.5H21V9.5ZM10 9.5V13H12V9.5H10ZM11 14H15.75V12H11V14ZM14.75 13C14.75 13.349 14.489 13.9665 13.7905 14.54C13.124 15.087 12.1585 15.5 11 15.5V17.5C12.6415 17.5 14.051 16.9135 15.0595 16.0855C16.036 15.2845 16.75 14.151 16.75 13H14.75ZM11 15.5C8.1915 15.5 6.5 13.098 6.5 10.75H4.5C4.5 13.902 6.8085 17.5 11 17.5V15.5ZM6.5 10.75C6.5 8.582 8.522 6.5 11 6.5V4.5C7.478 4.5 4.5 7.418 4.5 10.75H6.5ZM11 6.5C12 6.5 12.8225 6.8895 13.2805 7.133L14.2195 5.367C13.6775 5.079 12.4995 4.5 11 4.5V6.5ZM11 22C13.836 22 17.23 20.844 19.54 17.8625L17.96 16.6375C16.094 19.0445 13.335 20 11 20V22ZM19.54 17.8625C21.059 15.903 22.2665 13.4675 21.998 9.4335L20.002 9.5665C20.2335 13.033 19.231 14.997 17.96 16.6375L19.54 17.8625Z" fill="#ED8A37"/>
</svg>