<svg xmlns="http://www.w3.org/2000/svg" width="101" height="100" viewBox="0 0 101 100" fill="none">
  <path d="M11.9199 57.669C11.9199 68.2777 16.1342 78.4518 23.6357 85.9533C31.1371 93.4547 41.3113 97.669 51.9199 97.669C62.5286 97.669 72.7027 93.4547 80.2042 85.9533C87.7057 78.4518 91.9199 68.2777 91.9199 57.669C91.9199 47.0603 87.7057 36.8862 80.2042 29.3847C72.7027 21.8833 62.5286 17.669 51.9199 17.669C41.3113 17.669 31.1371 21.8833 23.6357 29.3847C16.1342 36.8862 11.9199 47.0603 11.9199 57.669Z" fill="#E7F0EF"/>
  <path d="M38.8206 87.541L38.7426 86.691L43.2136 86.281C43.4507 86.2587 43.6692 86.1433 43.8214 85.9602C43.9736 85.7771 44.047 85.5411 44.0256 85.304L43.7006 81.728C43.5335 79.9075 43.0093 78.1377 42.1581 76.5198C41.3069 74.9019 40.1453 73.4676 38.7396 72.2987C37.3339 71.1298 35.7118 70.2493 33.9657 69.7075C32.2197 69.1657 30.384 68.9732 28.5636 69.141C28.5386 69.141 28.5156 69.149 28.4906 69.151L20.4446 69.891C18.1929 70.0956 15.938 69.5347 14.0446 68.299C13.8422 68.1667 13.6018 68.1048 13.3606 68.1229C13.1195 68.141 12.891 68.238 12.7106 68.399L9.7806 71.024C9.72129 71.0772 9.67425 71.1427 9.64269 71.2158C9.61114 71.289 9.59583 71.3682 9.59783 71.4478C9.59983 71.5275 9.61908 71.6058 9.65426 71.6773C9.68943 71.7488 9.7397 71.8118 9.8016 71.862C12.233 73.8256 15.2018 75.0074 18.3176 75.252C18.949 75.3019 19.5424 75.5736 19.9927 76.0191C20.4429 76.4646 20.721 77.0551 20.7776 77.686L21.6836 87.539" fill="#CDE0DE"/>
  <path d="M38.8206 87.541L38.7426 86.691L43.2136 86.281C43.4507 86.2587 43.6692 86.1433 43.8214 85.9602C43.9736 85.7771 44.047 85.5411 44.0256 85.304L43.7006 81.728C43.5335 79.9075 43.0093 78.1377 42.1581 76.5198C41.3069 74.9019 40.1453 73.4676 38.7396 72.2987C37.3339 71.1298 35.7118 70.2493 33.9657 69.7075C32.2197 69.1657 30.384 68.9732 28.5636 69.141C28.5386 69.141 28.5156 69.149 28.4906 69.151L20.4446 69.891C18.1929 70.0956 15.938 69.5347 14.0446 68.299C13.8422 68.1667 13.6018 68.1048 13.3606 68.1229C13.1195 68.141 12.891 68.238 12.7106 68.399L9.7806 71.024C9.72129 71.0772 9.67425 71.1427 9.64269 71.2158C9.61114 71.289 9.59583 71.3682 9.59783 71.4478C9.59983 71.5275 9.61908 71.6058 9.65426 71.6773C9.68943 71.7488 9.7397 71.8118 9.8016 71.862C12.233 73.8256 15.2018 75.0074 18.3176 75.252C18.949 75.3019 19.5424 75.5736 19.9927 76.0191C20.4429 76.4646 20.721 77.0551 20.7776 77.686L21.6836 87.539" stroke="#2D3536" stroke-linecap="round" stroke-linejoin="round"/>
  <path d="M38.207 80.879L38.741 86.692" stroke="#2D3536" stroke-linecap="round" stroke-linejoin="round"/>
  <path d="M29.0566 74.506L30.2546 87.541" stroke="#2D3536" stroke-linecap="round" stroke-linejoin="round"/>
  <path d="M13.0424 68.107C12.5219 67.703 12.0404 67.251 11.6044 66.757L5.54638 59.352C5.15678 58.9011 4.60403 58.6235 4.00972 58.5802C3.41542 58.5368 2.82825 58.7314 2.37738 59.121C1.92651 59.5106 1.64888 60.0633 1.60556 60.6576C1.56224 61.252 1.75678 61.8391 2.14638 62.29L8.20938 69.7C8.65747 70.2144 9.14027 70.6975 9.65438 71.146L13.0424 68.107Z" fill="white" stroke="#2D3536" stroke-linecap="round" stroke-linejoin="round"/>
  <path d="M24.2369 70.255C23.8102 72.279 24.0451 74.3866 24.9069 76.267C24.968 76.3788 25.0521 76.4763 25.1537 76.5532C25.2554 76.6301 25.3721 76.6845 25.4963 76.7128C25.6206 76.7412 25.7494 76.7429 25.8743 76.7177C25.9992 76.6926 26.1173 76.6412 26.2209 76.567L29.0559 74.511L32.2169 76.011C32.332 76.0655 32.4574 76.0949 32.5848 76.0973C32.7122 76.0996 32.8386 76.075 32.9557 76.0249C33.0728 75.9748 33.178 75.9004 33.2642 75.8066C33.3504 75.7129 33.4158 75.6019 33.4559 75.481C33.9601 73.4751 33.8069 71.3603 33.0189 69.448C30.0811 68.7626 27.0005 69.0457 24.2369 70.255Z" fill="white" stroke="#2D3536" stroke-linecap="round" stroke-linejoin="round"/>
  <path d="M29.0565 74.506L25.9245 71.906C25.7416 71.7536 25.6266 71.535 25.6045 71.298L25.1465 66.3L31.4055 65.725L31.8645 70.72C31.887 70.9565 31.8151 71.1923 31.6645 71.376L29.0565 74.506Z" fill="white" stroke="#2D3536" stroke-linecap="round" stroke-linejoin="round"/>
  <path d="M36.3991 56.248L36.1931 54.012C35.9559 51.6559 34.7976 49.4888 32.9704 47.9826C31.1431 46.4763 28.7949 45.7527 26.4368 45.9694C24.0787 46.186 21.9016 47.3253 20.3794 49.1393C18.8572 50.9533 18.1131 53.2951 18.3091 55.655L18.5151 57.891C18.2687 57.8971 18.0262 57.9537 17.8026 58.0574C17.579 58.1611 17.3791 58.3096 17.2152 58.4937C17.0513 58.6778 16.927 58.8936 16.85 59.1278C16.7729 59.3619 16.7448 59.6093 16.7673 59.8548C16.7898 60.1002 16.8625 60.3385 16.9808 60.5547C17.0992 60.7709 17.2606 60.9605 17.4553 61.1117C17.6499 61.263 17.8735 61.3726 18.1122 61.4339C18.351 61.4952 18.5997 61.5068 18.8431 61.468C18.8811 61.468 18.9151 61.452 18.9521 61.447C19.4626 63.5345 20.7058 65.3694 22.4553 66.6174C24.2049 67.8655 26.3444 68.4438 28.4844 68.247C30.6245 68.0503 32.6227 67.0916 34.1154 65.5455C35.608 63.9993 36.4958 61.9686 36.6171 59.823C36.6541 59.823 36.6901 59.828 36.7271 59.823C36.9742 59.8178 37.2175 59.7619 37.442 59.6586C37.6665 59.5554 37.8673 59.407 38.0319 59.2228C38.1966 59.0385 38.3215 58.8223 38.399 58.5877C38.4764 58.3531 38.5048 58.105 38.4822 57.859C38.4596 57.6129 38.3867 57.3741 38.2678 57.1575C38.1489 56.9409 37.9868 56.7511 37.7913 56.5998C37.5959 56.4486 37.3715 56.3392 37.132 56.2785C36.8924 56.2178 36.643 56.2081 36.3991 56.248Z" fill="white" stroke="#2D3536" stroke-linecap="round" stroke-linejoin="round"/>
  <path d="M25.3145 63.4C26.104 64.0235 27.1032 64.3193 28.105 64.2262C29.1067 64.1332 30.0343 63.6583 30.6955 62.9" stroke="#2D3536" stroke-linecap="round" stroke-linejoin="round"/>
  <path d="M32.4537 57.512C32.3187 57.2565 32.1111 57.0467 31.8571 56.9091C31.6031 56.7714 31.314 56.7121 31.0263 56.7385C30.7386 56.7649 30.4652 56.8759 30.2404 57.0575C30.0157 57.2391 29.8498 57.4832 29.7637 57.759" stroke="#2D3536" stroke-linecap="round" stroke-linejoin="round"/>
  <path d="M25.3072 58.168C25.1722 57.9125 24.9647 57.7028 24.7106 57.5651C24.4566 57.4274 24.1675 57.3681 23.8798 57.3945C23.5921 57.4209 23.3187 57.5319 23.094 57.7135C22.8693 57.8952 22.7034 58.1392 22.6172 58.415" stroke="#2D3536" stroke-linecap="round" stroke-linejoin="round"/>
  <path d="M21.5391 61.342C21.5391 61.6396 21.6573 61.925 21.8677 62.1354C22.0781 62.3458 22.3635 62.464 22.6611 62.464C22.9586 62.464 23.244 62.3458 23.4544 62.1354C23.6649 61.925 23.7831 61.6396 23.7831 61.342C23.7831 61.0444 23.6649 60.759 23.4544 60.5486C23.244 60.3382 22.9586 60.22 22.6611 60.22C22.3635 60.22 22.0781 60.3382 21.8677 60.5486C21.6573 60.759 21.5391 61.0444 21.5391 61.342Z" fill="#CDE0DE"/>
  <path d="M31.8223 60.397C31.8223 60.6946 31.9405 60.98 32.1509 61.1904C32.3613 61.4008 32.6467 61.519 32.9443 61.519C33.2418 61.519 33.5272 61.4008 33.7376 61.1904C33.9481 60.98 34.0663 60.6946 34.0663 60.397C34.0663 60.0994 33.9481 59.8141 33.7376 59.6036C33.5272 59.3932 33.2418 59.275 32.9443 59.275C32.6467 59.275 32.3613 59.3932 32.1509 59.6036C31.9405 59.8141 31.8223 60.0994 31.8223 60.397Z" fill="#CDE0DE"/>
  <path d="M27.345 45.854C27.0383 45.8513 26.7315 45.864 26.426 45.892C25.2514 45.9987 24.1093 46.336 23.0652 46.8847C22.021 47.4333 21.0954 48.1825 20.3411 49.0894C19.5869 49.9962 19.0189 51.0429 18.6697 52.1695C18.3205 53.2961 18.1969 54.4805 18.306 55.655L18.512 57.891C18.9022 57.8832 19.2809 58.0231 19.5722 58.2827C19.8636 58.5424 20.046 58.9025 20.083 59.291C20.3124 58.0781 20.2632 56.829 19.939 55.638C20.911 55.866 22.339 54.38 22.339 54.38L22.139 52.234C23.7515 52.6338 25.4049 52.8452 27.066 52.864C28.6973 52.5441 30.2859 52.0361 31.8 51.35L32 53.496C32 53.496 33.673 54.696 34.587 54.296C34.4851 55.5258 34.6643 56.7627 35.111 57.913C35.0758 57.5238 35.1893 57.1357 35.4286 56.8268C35.668 56.5179 36.0154 56.3111 36.401 56.248L36.195 54.012C35.9914 51.7979 34.9737 49.7381 33.3389 48.2311C31.7041 46.7241 29.5684 45.8771 27.345 45.854Z" fill="#CDE0DE" stroke="#2D3536" stroke-linecap="round" stroke-linejoin="round"/>
  <path d="M21.6074 43.629L30.7524 42.789C31.359 42.7331 31.9667 42.8845 32.4761 43.2185C32.9856 43.5525 33.3668 44.0494 33.5574 44.628L36.6374 53.971L17.8594 55.7L19.1854 45.952C19.2667 45.3479 19.5506 44.7893 19.9905 44.3673C20.4304 43.9454 21.0004 43.6851 21.6074 43.629Z" fill="#CDE0DE" stroke="#2D3536" stroke-linecap="round" stroke-linejoin="round"/>
  <path d="M14.3637 56.919C14.2417 56.9389 14.117 56.9336 13.9972 56.9032C13.8775 56.8729 13.7653 56.8182 13.6676 56.7426C13.5699 56.667 13.4888 56.572 13.4293 56.4637C13.3699 56.3554 13.3334 56.236 13.3221 56.113C13.3108 55.99 13.325 55.8659 13.3637 55.7486C13.4025 55.6313 13.4649 55.5232 13.5473 55.4311C13.6296 55.339 13.73 55.2648 13.8422 55.2132C13.9545 55.1615 14.0761 55.1336 14.1997 55.131L40.1317 52.748C40.3605 52.7413 40.5834 52.8222 40.7547 52.9741C40.9261 53.1259 41.0331 53.3374 41.054 53.5655C41.0749 53.7935 41.0081 54.0209 40.8672 54.2014C40.7263 54.3819 40.5219 54.5019 40.2957 54.537L14.3637 56.919Z" fill="#CDE0DE" stroke="#2D3536" stroke-linecap="round" stroke-linejoin="round"/>
  <path d="M75.8647 87.541L77.3857 73.878L70.2457 73.089L68.6367 87.541" fill="white"/>
  <path d="M75.8647 87.541L77.3857 73.878L70.2457 73.089L68.6367 87.541" stroke="#2D3536" stroke-linecap="round" stroke-linejoin="round"/>
  <path d="M94.6441 57.427L94.2441 58.32L98.7601 60.32L99.1601 59.431C99.3163 59.1312 99.4093 58.8025 99.4335 58.4654C99.4577 58.1282 99.4126 57.7896 99.3008 57.4706C99.1891 57.1516 99.0132 56.8588 98.7839 56.6104C98.5547 56.362 98.2769 56.1632 97.9679 56.0263C97.6588 55.8894 97.3249 55.8172 96.9869 55.8144C96.6489 55.8115 96.3139 55.8779 96.0025 56.0095C95.6911 56.1412 95.4101 56.3352 95.1766 56.5797C94.9431 56.8242 94.7623 57.1139 94.6451 57.431L94.6441 57.427Z" fill="white" stroke="#2D3536" stroke-linecap="round" stroke-linejoin="round"/>
  <path d="M68.6351 87.541L70.2441 73.089C69.3949 72.0283 68.7675 70.8078 68.3991 69.5C65.876 70.336 63.6456 71.8779 61.9721 73.9429C60.2986 76.0079 59.2522 78.5095 58.9571 81.151L58.2461 87.545" fill="#CDE0DE"/>
  <path d="M68.6351 87.541L70.2441 73.089C69.3949 72.0283 68.7675 70.8078 68.3991 69.5C65.876 70.336 63.6456 71.8779 61.9721 73.9429C60.2986 76.0079 59.2522 78.5095 58.9571 81.151L58.2461 87.545" stroke="#2D3536" stroke-linecap="round" stroke-linejoin="round"/>
  <path d="M64.1191 87.541L65.1061 78.669" stroke="#2D3536" stroke-linecap="round" stroke-linejoin="round"/>
  <path d="M68.4006 69.491C69.3005 69.1923 70.2282 68.9852 71.1696 68.873L71.4086 66.721C68.8952 66.4167 66.3534 66.9847 64.2086 68.33C64.0106 68.4589 63.8717 68.6611 63.8224 68.8922C63.7731 69.1233 63.8174 69.3645 63.9456 69.563L67.1346 74.572C67.2062 74.6838 67.3017 74.7784 67.4141 74.849C67.5265 74.9195 67.6532 74.9644 67.785 74.9802C67.9168 74.9961 68.0505 74.9826 68.1764 74.9407C68.3024 74.8988 68.4176 74.8296 68.5136 74.738L70.2426 73.081C69.3948 72.0195 68.7685 70.7988 68.4006 69.491Z" fill="white" stroke="#2D3536" stroke-linecap="round" stroke-linejoin="round"/>
  <path d="M80.3813 87.541L81.1693 80.457C81.2999 79.2849 81.777 78.1783 82.5395 77.2786C83.302 76.3789 84.3154 75.727 85.4503 75.406C88.128 74.6471 90.6047 73.3052 92.7027 71.4764C94.8008 69.6475 96.4681 67.3771 97.5853 64.828L99.0053 61.611C99.1229 61.3442 99.1298 61.0415 99.0244 60.7696C98.9191 60.4977 98.71 60.2788 98.4433 60.161L94.7043 58.511C94.4375 58.3933 94.1348 58.3864 93.8629 58.4918C93.591 58.5972 93.3721 58.8062 93.2543 59.073L91.8343 62.288C90.6549 64.9915 88.5686 67.1984 85.9355 68.5277C83.3025 69.857 80.2879 70.2253 77.4123 69.569C78.3057 69.8863 79.1644 70.2937 79.9753 70.785C79.3273 71.979 78.4462 73.0307 77.3843 73.878L75.8633 87.541" fill="#CDE0DE"/>
  <path d="M80.3813 87.541L81.1693 80.457C81.2999 79.2849 81.777 78.1783 82.5395 77.2786C83.302 76.3789 84.3154 75.727 85.4503 75.406C88.128 74.6471 90.6047 73.3052 92.7027 71.4764C94.8008 69.6475 96.4681 67.3771 97.5853 64.828L99.0053 61.611C99.1229 61.3442 99.1298 61.0415 99.0244 60.7696C98.9191 60.4977 98.71 60.2788 98.4433 60.161L94.7043 58.511C94.4375 58.3933 94.1348 58.3864 93.8629 58.4918C93.591 58.5972 93.3721 58.8062 93.2543 59.073L91.8343 62.288C90.6549 64.9915 88.5686 67.1984 85.9355 68.5277C83.3025 69.857 80.2879 70.2253 77.4123 69.569C78.3057 69.8863 79.1644 70.2937 79.9753 70.785C79.3273 71.979 78.4462 73.0307 77.3843 73.878L75.8633 87.541" stroke="#2D3536" stroke-linecap="round" stroke-linejoin="round"/>
  <path d="M79.9785 70.78C79.1664 70.2912 78.307 69.8855 77.4135 69.569L77.6525 67.416C80.1719 67.6718 82.527 68.7853 84.3235 70.57C84.4885 70.7391 84.5797 70.9667 84.5771 71.2029C84.5745 71.4391 84.4782 71.6647 84.3095 71.83L80.1005 76.016C80.0061 76.1093 79.8921 76.1806 79.7669 76.2247C79.6416 76.2688 79.5081 76.2846 79.376 76.271C79.2439 76.2575 79.1165 76.2148 79.0028 76.1462C78.8891 76.0775 78.7921 75.9846 78.7185 75.874L77.3945 73.874C78.4536 73.0253 79.3321 71.9733 79.9785 70.78Z" fill="white" stroke="#2D3536" stroke-linecap="round" stroke-linejoin="round"/>
  <path d="M70.2375 73.081C69.39 72.0194 68.764 70.7987 68.3965 69.491C69.2963 69.1922 70.224 68.9852 71.1655 68.873L71.3655 67.05C73.3035 68.0286 75.53 68.2737 77.6345 67.74H77.6135L77.4135 69.572C78.307 69.8885 79.1663 70.2942 79.9785 70.783C79.3313 71.9769 78.4517 73.0293 77.3915 73.878V73.884C76.3027 74.6655 74.9872 75.0675 73.6475 75.028C72.3327 74.7726 71.1381 74.0924 70.2475 73.092" fill="white"/>
  <path d="M70.2375 73.081C69.39 72.0194 68.764 70.7987 68.3965 69.491C69.2963 69.1922 70.224 68.9852 71.1655 68.873L71.3655 67.05C73.3035 68.0286 75.53 68.2737 77.6345 67.74H77.6135L77.4135 69.572C78.307 69.8885 79.1663 70.2942 79.9785 70.783C79.3313 71.9769 78.4517 73.0293 77.3915 73.878V73.884C76.3027 74.6655 74.9872 75.0675 73.6475 75.028C72.3327 74.7726 71.1381 74.0924 70.2475 73.092" stroke="#2D3536" stroke-linecap="round" stroke-linejoin="round"/>
  <path d="M84.6005 57.8L84.8485 55.569C84.9961 54.3888 84.9077 53.191 84.5885 52.0452C84.2693 50.8994 83.7257 49.8284 82.9892 48.8944C82.2526 47.9604 81.3379 47.1821 80.2981 46.6046C79.2583 46.027 78.1141 45.6618 76.932 45.5302C75.7498 45.3985 74.5533 45.503 73.4119 45.8376C72.2705 46.1721 71.2069 46.7301 70.283 47.4791C69.359 48.2281 68.593 49.1532 68.0295 50.2007C67.4661 51.2482 67.1163 52.3972 67.0005 53.581L66.7525 55.812C66.2959 55.7908 65.8484 55.9442 65.5007 56.2409C65.153 56.5376 64.9312 56.9554 64.8803 57.4097C64.8294 57.8639 64.9533 58.3205 65.2267 58.6868C65.5001 59.053 65.9026 59.3016 66.3525 59.382H66.4635C66.5435 61.5298 67.3921 63.5774 68.8549 65.1521C70.3177 66.7267 72.2974 67.7237 74.4335 67.9614C76.5695 68.1991 78.7199 67.6617 80.4931 66.4472C82.2663 65.2326 83.5443 63.4217 84.0945 61.344C84.1305 61.351 84.1645 61.363 84.2015 61.367C84.4439 61.4103 84.6927 61.4034 84.9323 61.3468C85.172 61.2901 85.3975 61.1849 85.5948 61.0376C85.7922 60.8903 85.9572 60.704 86.0797 60.4904C86.2022 60.2767 86.2795 60.0402 86.307 59.7955C86.3344 59.5508 86.3113 59.303 86.2391 59.0676C86.1669 58.8321 86.0472 58.614 85.8874 58.4266C85.7275 58.2393 85.5309 58.0868 85.3097 57.9785C85.0886 57.8702 84.8475 57.8084 84.6015 57.797L84.6005 57.8Z" fill="white" stroke="#2D3536" stroke-linecap="round" stroke-linejoin="round"/>
  <path d="M80.4809 58.244C80.4005 57.9664 80.2396 57.7189 80.0185 57.5327C79.7975 57.3465 79.5262 57.23 79.239 57.1979C78.9518 57.1658 78.6615 57.2195 78.4049 57.3523C78.1482 57.4851 77.9366 57.691 77.7969 57.944" stroke="#2D3536" stroke-linecap="round" stroke-linejoin="round"/>
  <path d="M73.3481 57.45C73.2672 57.1725 73.106 56.9252 72.8848 56.7392C72.6636 56.5532 72.3923 56.4368 72.1051 56.4047C71.8179 56.3727 71.5276 56.4263 71.2708 56.5589C71.014 56.6916 70.8022 56.8972 70.6621 57.15" stroke="#2D3536" stroke-linecap="round" stroke-linejoin="round"/>
  <path d="M69.9647 61.39C70.1112 61.4063 70.2591 61.3968 70.3999 61.362C70.5408 61.3272 70.6719 61.2679 70.7857 61.1873C70.8995 61.1067 70.9939 61.0065 71.0633 60.8924C71.1328 60.7783 71.176 60.6525 71.1905 60.5222C71.205 60.3919 71.1905 60.2597 71.1479 60.1331C71.1052 60.0065 71.0353 59.888 70.942 59.7844C70.8487 59.6807 70.7339 59.594 70.6041 59.5291C70.4744 59.4641 70.3322 59.4223 70.1857 59.406C70.0393 59.3898 69.8914 59.3993 69.7506 59.4342C69.6097 59.469 69.4787 59.5284 69.3649 59.609C69.1351 59.7719 68.9897 60.0112 68.9605 60.2742C68.9313 60.5373 69.0208 60.8027 69.2094 61.0119C69.3979 61.2212 69.67 61.3572 69.9657 61.39H69.9647Z" fill="#CDE0DE"/>
  <path d="M80.2283 62.533C80.377 62.5534 80.528 62.5471 80.6723 62.5144C80.8167 62.4817 80.9514 62.4234 81.0687 62.3428C81.1859 62.2622 81.2832 62.1611 81.3549 62.0453C81.4265 61.9296 81.471 61.8016 81.4857 61.6689C81.5004 61.5362 81.4851 61.4016 81.4406 61.2729C81.396 61.1443 81.3233 61.0242 81.2265 60.9199C81.1298 60.8156 81.0111 60.7291 80.8774 60.6656C80.7438 60.602 80.5979 60.5627 80.4483 60.55C80.2997 60.5296 80.1487 60.536 80.0043 60.5686C79.86 60.6013 79.7252 60.6597 79.608 60.7402C79.4907 60.8208 79.3934 60.922 79.3218 61.0377C79.2502 61.1535 79.2057 61.2815 79.191 61.4141C79.1762 61.5468 79.1916 61.6815 79.2361 61.8101C79.2806 61.9388 79.3534 62.0588 79.4501 62.1631C79.5469 62.2675 79.6656 62.3539 79.7992 62.4175C79.9329 62.481 80.0788 62.5203 80.2283 62.533Z" fill="#CDE0DE"/>
  <path d="M72.3008 62.754C72.9454 63.5228 73.8612 64.0139 74.8582 64.1257C75.8552 64.2374 76.857 63.9611 77.6558 63.354" stroke="#2D3536" stroke-linecap="round" stroke-linejoin="round"/>
  <path d="M84.571 48.524C84.6882 48.3272 84.7647 48.1089 84.796 47.882C85.18 44.432 82.911 41.348 78.352 40.84C77.459 40.74 72.945 41.009 74.187 37.666C68.587 39.301 68.287 46.044 68.287 46.044C68.2667 46.3733 68.3307 46.7023 68.473 47C67.26 47.891 64.951 50.349 66.798 55.366C68.5923 53.8454 69.7878 51.7366 70.171 49.416L69.971 48.88C71.67 50.2617 73.7233 51.1379 75.8964 51.4086C78.0695 51.6793 80.2749 51.3336 82.261 50.411C81.925 53.945 84.645 57.352 84.645 57.352C87.861 52.385 85.424 49.359 84.571 48.524Z" fill="white" stroke="#2D3536" stroke-linecap="round" stroke-linejoin="round"/>
  <path d="M61.8154 93.78V84.626H66.4344C67.0467 84.626 67.634 84.3827 68.0671 83.9497C68.5001 83.5167 68.7434 82.9294 68.7434 82.317C68.7434 77.5696 66.8575 73.0167 63.5006 69.6598C60.1437 66.3029 55.5907 64.417 50.8434 64.417C46.096 64.417 41.5431 66.3029 38.1861 69.6598C34.8292 73.0167 32.9434 77.5696 32.9434 82.317C32.9436 82.9295 33.1871 83.5168 33.6203 83.9498C34.0535 84.3828 34.6409 84.626 35.2534 84.626H39.8724V93.78" fill="#CDE0DE"/>
  <path d="M61.8154 93.78V84.626H66.4344C67.0467 84.626 67.634 84.3827 68.0671 83.9497C68.5001 83.5167 68.7434 82.9294 68.7434 82.317C68.7434 77.5696 66.8575 73.0167 63.5006 69.6598C60.1437 66.3029 55.5907 64.417 50.8434 64.417C46.096 64.417 41.5431 66.3029 38.1861 69.6598C34.8292 73.0167 32.9434 77.5696 32.9434 82.317C32.9436 82.9295 33.1871 83.5168 33.6203 83.9498C34.0535 84.3828 34.6409 84.626 35.2534 84.626H39.8724V93.78" stroke="#2D3536" stroke-linecap="round" stroke-linejoin="round"/>
  <path d="M46.7996 66.677V63.377C43.7236 64.482 41.5996 66.751 41.5996 69.033C41.5996 71.155 43.4306 73.794 46.1586 75.061C46.3803 75.1663 46.6294 75.1995 46.8709 75.1561C47.1125 75.1127 47.3344 74.9949 47.5056 74.819L50.8376 71.343L48.2546 69.5C47.8044 69.1797 47.4374 68.7563 47.1843 68.2652C46.9312 67.7741 46.7993 67.2295 46.7996 66.677Z" fill="white" stroke="#2D3536" stroke-linecap="round" stroke-linejoin="round"/>
  <path d="M54.8867 63.381V66.681C54.8868 67.2323 54.7553 67.7758 54.5031 68.2661C54.2509 68.7564 53.8853 69.1794 53.4367 69.5L50.8457 71.351L54.1777 74.827C54.3488 75.003 54.5707 75.1209 54.8123 75.1643C55.0539 75.2077 55.303 75.1744 55.5247 75.069C58.2527 73.802 60.0837 71.163 60.0837 69.041C60.0837 66.755 57.9637 64.486 54.8867 63.381Z" fill="white" stroke="#2D3536" stroke-linecap="round" stroke-linejoin="round"/>
  <path d="M53.4378 69.5L50.8468 71.351L48.2558 69.5C47.8056 69.1797 47.4386 68.7563 47.1855 68.2652C46.9324 67.774 46.8004 67.2295 46.8008 66.677V60.954H54.8838V66.677C54.885 67.2287 54.7544 67.7727 54.5029 68.2637C54.2514 68.7547 53.8862 69.1786 53.4378 69.5Z" fill="white" stroke="#2D3536" stroke-linecap="round" stroke-linejoin="round"/>
  <path d="M67.5894 93.78V87.513H61.8164V93.78" fill="white"/>
  <path d="M67.5894 93.78V87.513H61.8164V93.78" stroke="#2D3536" stroke-linecap="round" stroke-linejoin="round"/>
  <path d="M39.8756 93.78V87.513H34.1016V93.78" fill="white"/>
  <path d="M39.8756 93.78V87.513H34.1016V93.78" stroke="#2D3536" stroke-linecap="round" stroke-linejoin="round"/>
  <path d="M61.8164 80.585V84.626" stroke="#2D3536" stroke-linecap="round" stroke-linejoin="round"/>
  <path d="M39.877 80.585V84.626" stroke="#2D3536" stroke-linecap="round" stroke-linejoin="round"/>
  <path d="M67.5894 84.316C67.239 84.5197 66.8407 84.6266 66.4354 84.626H61.8164V87.513H67.5894V84.316Z" fill="#CDE0DE" stroke="#2D3536" stroke-linecap="round" stroke-linejoin="round"/>
  <path d="M39.8756 84.626H35.2566C34.851 84.6263 34.4525 84.5193 34.1016 84.316V87.516H39.8756V84.626Z" fill="#CDE0DE" stroke="#2D3536" stroke-linecap="round" stroke-linejoin="round"/>
  <path d="M67.5884 62.109V52.294C67.59 50.6284 67.2116 48.9843 66.4821 47.4869C65.7526 45.9895 64.6911 44.6783 63.3784 43.653C63.4913 44.4111 63.5478 45.1766 63.5474 45.943V47.675C63.5474 47.9813 63.4257 48.2751 63.2091 48.4917C62.9925 48.7083 62.6987 48.83 62.3924 48.83C62.6997 48.8236 63.0052 48.8786 63.291 48.9918C63.5768 49.105 63.8372 49.2741 64.0568 49.4892C64.2764 49.7043 64.4509 49.961 64.57 50.2444C64.6891 50.5278 64.7505 50.8321 64.7505 51.1395C64.7505 51.4469 64.6891 51.7512 64.57 52.0346C64.4509 52.318 64.2764 52.5747 64.0568 52.7898C63.8372 53.0049 63.5768 53.174 63.291 53.2872C63.0052 53.4004 62.6997 53.4554 62.3924 53.449C62.3444 53.449 62.2984 53.437 62.2504 53.434C61.8257 56.2651 60.3645 58.8374 58.1504 60.652C59.0526 62.3168 60.3154 63.7591 61.8463 64.8735C63.3773 65.9878 65.1378 66.7461 66.9994 67.093C67.2064 67.1324 67.4202 67.1147 67.6179 67.0416C67.8156 66.9686 67.9896 66.8431 68.1212 66.6785C68.2529 66.5139 68.3372 66.3166 68.365 66.1077C68.3929 65.8989 68.3633 65.6863 68.2794 65.493C67.824 64.4229 67.589 63.272 67.5884 62.109Z" fill="#CDE0DE" stroke="#2D3536" stroke-linecap="round" stroke-linejoin="round"/>
  <path d="M62.3921 48.83V45.943C62.3638 42.899 61.1347 39.9893 58.9722 37.8469C56.8097 35.7044 53.8887 34.5024 50.8446 34.5024C47.8005 34.5024 44.8795 35.7044 42.717 37.8469C40.5545 39.9893 39.3254 42.899 39.2971 45.943V48.83C38.6929 48.8426 38.1177 49.0914 37.6948 49.5231C37.272 49.9549 37.0352 50.5352 37.0352 51.1395C37.0352 51.7438 37.272 52.3241 37.6948 52.7558C38.1177 53.1876 38.6929 53.4364 39.2971 53.449C39.3461 53.449 39.3911 53.437 39.4391 53.434C39.8473 56.167 41.2232 58.6626 43.3165 60.4664C45.4098 62.2703 48.0813 63.2626 50.8446 63.2626C53.6079 63.2626 56.2794 62.2703 58.3727 60.4664C60.466 58.6626 61.8419 56.167 62.2501 53.434C62.2981 53.434 62.3441 53.449 62.3921 53.449C62.6994 53.4554 63.0049 53.4004 63.2907 53.2872C63.5765 53.174 63.8369 53.0049 64.0565 52.7898C64.2761 52.5747 64.4506 52.318 64.5697 52.0346C64.6888 51.7512 64.7502 51.4469 64.7502 51.1395C64.7502 50.8321 64.6888 50.5278 64.5697 50.2444C64.4506 49.961 64.2761 49.7042 64.0565 49.4892C63.8369 49.2741 63.5765 49.105 63.2907 48.9918C63.0049 48.8786 62.6994 48.8236 62.3921 48.83Z" fill="white" stroke="#2D3536" stroke-linecap="round" stroke-linejoin="round"/>
  <path d="M42.7637 53.737C42.7637 54.1197 42.9157 54.4867 43.1863 54.7574C43.4569 55.028 43.824 55.18 44.2067 55.18C44.5894 55.18 44.9564 55.028 45.227 54.7574C45.4976 54.4867 45.6497 54.1197 45.6497 53.737C45.6497 53.3543 45.4976 52.9873 45.227 52.7167C44.9564 52.446 44.5894 52.294 44.2067 52.294C43.824 52.294 43.4569 52.446 43.1863 52.7167C42.9157 52.9873 42.7637 53.3543 42.7637 53.737Z" fill="#CDE0DE"/>
  <path d="M56.043 53.737C56.043 54.1197 56.195 54.4867 56.4656 54.7574C56.7362 55.028 57.1033 55.18 57.486 55.18C57.8687 55.18 58.2357 55.028 58.5063 54.7574C58.7769 54.4867 58.929 54.1197 58.929 53.737C58.929 53.3543 58.7769 52.9873 58.5063 52.7167C58.2357 52.446 57.8687 52.294 57.486 52.294C57.1033 52.294 56.7362 52.446 56.4656 52.7167C56.195 52.9873 56.043 53.3543 56.043 53.737Z" fill="#CDE0DE"/>
  <path d="M47.3711 56.669C48.3077 57.5611 49.5516 58.0587 50.8451 58.0587C52.1386 58.0587 53.3825 57.5611 54.3191 56.669" stroke="#2D3536" stroke-linecap="round" stroke-linejoin="round"/>
  <path d="M57.2054 49.984C57.0627 49.6411 56.8216 49.3481 56.5125 49.142C56.2035 48.936 55.8404 48.826 55.4689 48.826C55.0975 48.826 54.7344 48.936 54.4253 49.142C54.1163 49.3481 53.8752 49.6411 53.7324 49.984" stroke="#2D3536" stroke-linecap="round" stroke-linejoin="round"/>
  <path d="M47.9584 49.984C47.8154 49.6412 47.5742 49.3483 47.2651 49.1423C46.956 48.9363 46.5928 48.8264 46.2214 48.8264C45.8499 48.8264 45.4868 48.9363 45.1777 49.1423C44.8686 49.3483 44.6274 49.6412 44.4844 49.984" stroke="#2D3536" stroke-linecap="round" stroke-linejoin="round"/>
  <path d="M50.8466 32.663C43.9176 32.663 40.5006 36.87 38.8126 41.9H37.5666C37.2605 41.9003 36.967 42.0221 36.7506 42.2387C36.5342 42.4552 36.4126 42.7489 36.4126 43.055C36.389 43.7419 36.5346 44.424 36.8366 45.0413C37.1386 45.6586 37.5878 46.1922 38.1446 46.595V47.674C38.1445 47.8259 38.1743 47.9763 38.2324 48.1166C38.2904 48.2569 38.3756 48.3844 38.4829 48.4917C38.5903 48.5991 38.7178 48.6842 38.8581 48.7423C38.9984 48.8003 39.1488 48.8302 39.3006 48.83C39.6023 48.8302 39.8936 48.7203 40.1199 48.5209C40.3462 48.3214 40.4919 48.0463 40.5296 47.747L40.5536 47.563C40.9975 47.6445 41.4484 47.682 41.8996 47.675C43.1944 47.6732 44.436 47.1598 45.354 46.2467C46.272 45.3336 46.7919 44.0948 46.8006 42.8V42.63C46.837 41.8122 47.1875 41.0399 47.7792 40.4741C48.3708 39.9084 49.158 39.5927 49.9766 39.593H52.0006C54.2629 39.593 56.4466 40.423 58.1377 41.9258C59.8288 43.4285 60.9097 45.4994 61.1756 47.746C61.2107 48.0446 61.354 48.32 61.5785 48.52C61.803 48.7199 62.093 48.8306 62.3936 48.831C62.7 48.831 62.9938 48.7093 63.2104 48.4927C63.427 48.2761 63.5486 47.9824 63.5486 47.676V45.943C63.5486 38.928 58.8816 32.663 50.8466 32.663Z" fill="white" stroke="#2D3536" stroke-linecap="round" stroke-linejoin="round"/>
  <path d="M41.306 41.212C41.2954 41.237 41.294 41.265 41.3019 41.291C41.3098 41.317 41.3266 41.3393 41.3494 41.3542C41.3721 41.3691 41.3993 41.3755 41.4263 41.3724C41.4533 41.3692 41.4783 41.3567 41.497 41.337C42.6683 40.0867 44.0783 39.0838 45.6437 38.3877C47.2091 37.6916 48.8982 37.3164 50.6112 37.2842C52.3241 37.252 54.0261 37.5636 55.6166 38.2004C57.207 38.8373 58.6537 39.7865 59.871 40.992C59.9031 41.0218 59.9446 41.0394 59.9883 41.0421C60.032 41.0447 60.0752 41.032 60.1106 41.0063C60.146 40.9806 60.1714 40.9433 60.1824 40.901C60.1934 40.8586 60.1894 40.8137 60.171 40.774C59.2936 38.9959 57.9264 37.5054 56.2304 36.4782C54.5343 35.4509 52.5801 34.9296 50.5978 34.9756C48.6155 35.0217 46.6876 35.6331 45.0411 36.7379C43.3946 37.8428 42.098 39.3951 41.304 41.212H41.306Z" fill="#CDE0DE" stroke="#2D3536" stroke-linecap="round" stroke-linejoin="round"/>
  <path d="M46.7991 42.8C46.7904 44.0945 46.2705 45.3332 45.3528 46.2463C44.435 47.1594 43.1937 47.6729 41.8991 47.675C38.8691 47.675 36.4141 46.085 36.4141 43.056C36.4138 42.7502 36.5348 42.4567 36.7506 42.24C36.9664 42.0233 37.2593 41.901 37.5651 41.9H38.8111C40.4521 41.9 41.3831 41.914 42.7621 40.168" stroke="#2D3536" stroke-linecap="round" stroke-linejoin="round"/>
  <path d="M77.0496 2.35403C72.6521 2.56663 68.4322 4.15385 64.9847 6.89198C61.5371 9.63011 59.0358 13.3811 57.8331 17.6162C56.6305 21.8514 56.7872 26.3572 58.2812 30.4986C59.7752 34.6399 62.5311 38.208 66.1606 40.7C65.4673 43.773 63.873 46.5692 61.5816 48.731C61.4777 48.8315 61.4071 48.9613 61.3793 49.1031C61.3514 49.2448 61.3677 49.3917 61.4258 49.524C61.484 49.6562 61.5813 49.7675 61.7046 49.8428C61.8279 49.918 61.9714 49.9537 62.1156 49.945C69.0406 49.536 73.1156 47.245 75.8396 44.28C78.7221 44.5862 81.6369 44.2933 84.4009 43.4197C87.1649 42.5461 89.7185 41.1107 91.9015 39.2035C94.0845 37.2963 95.8498 34.9585 97.0866 32.3368C98.3234 29.7151 99.0049 26.8661 99.0886 23.9685C99.1722 21.0709 98.656 18.1873 97.5725 15.4987C96.489 12.81 94.8615 10.3743 92.7921 8.3444C90.7227 6.31449 88.2561 4.73419 85.547 3.70265C82.838 2.67112 79.945 2.21061 77.0496 2.35003V2.35403Z" fill="white" stroke="#2D3536" stroke-linecap="round" stroke-linejoin="round"/>
  <path d="M87.0404 19.4L86.9524 21.682L79.0994 13.82C78.7915 13.4981 78.376 13.3006 77.932 13.2652C77.4879 13.2298 77.0464 13.3589 76.6914 13.628C76.5015 13.7823 76.3462 13.9747 76.2354 14.1928C76.1246 14.4109 76.0609 14.6499 76.0482 14.8942C76.0356 15.1385 76.0744 15.3828 76.1621 15.6111C76.2498 15.8395 76.3845 16.0469 76.5574 16.22L75.4454 15.107C75.1057 14.7533 74.6443 14.5418 74.1546 14.5152C73.6649 14.4887 73.1834 14.6491 72.8074 14.964C72.6197 15.1331 72.4683 15.3386 72.3625 15.568C72.2567 15.7974 72.1987 16.046 72.1919 16.2985C72.1852 16.5511 72.2299 16.8024 72.3233 17.0371C72.4168 17.2718 72.5569 17.4851 72.7354 17.664L72.6854 17.614C72.415 17.3345 72.0602 17.1517 71.6757 17.0937C71.2911 17.0357 70.8982 17.1057 70.5574 17.293C70.3229 17.4259 70.1222 17.6112 69.9711 17.8344C69.8199 18.0577 69.7223 18.3128 69.6859 18.5799C69.6496 18.847 69.6753 19.1189 69.7613 19.3744C69.8472 19.6299 69.991 19.8621 70.1814 20.053L72.2654 22.136C72.1137 21.9844 71.932 21.8663 71.7318 21.7893C71.5316 21.7124 71.3175 21.6783 71.1034 21.6894C70.8892 21.7004 70.6798 21.7563 70.4886 21.8533C70.2973 21.9504 70.1287 22.0866 69.9934 22.253C69.7579 22.5642 69.645 22.951 69.6759 23.3399C69.7069 23.7289 69.8797 24.093 70.1614 24.363L78.9844 33.2C79.5988 33.8168 80.3295 34.3054 81.1342 34.6375C81.939 34.9696 82.8016 35.1387 83.6722 35.1347C84.5427 35.1308 85.4038 34.9541 86.2055 34.6148C87.0072 34.2754 87.7336 33.7803 88.3424 33.158C89.3083 32.1577 90.0584 30.9696 90.5461 29.6674C91.0338 28.3652 91.2486 26.9767 91.1774 25.588L90.9084 17.129C90.9021 16.9328 90.8197 16.7467 90.6786 16.6102C90.5375 16.4738 90.3487 16.3976 90.1524 16.398C89.3467 16.4007 88.5732 16.7145 87.9934 17.2739C87.4135 17.8332 87.0721 18.5949 87.0404 19.4Z" fill="#CDE0DE" stroke="#2D3536" stroke-linecap="round" stroke-linejoin="round"/>
  <path d="M72.2617 22.14L76.4997 26.378" stroke="#2D3536" stroke-linecap="round" stroke-linejoin="round"/>
  <path d="M72.7305 17.659L78.9685 23.898" stroke="#2D3536" stroke-linecap="round" stroke-linejoin="round"/>
  <path d="M76.5527 16.22L81.6047 21.272" stroke="#2D3536" stroke-linecap="round" stroke-linejoin="round"/>
  <path d="M86.953 21.678L84.453 24.178C84.0629 24.568 83.7535 25.031 83.5424 25.5406C83.3313 26.0502 83.2227 26.5964 83.2227 27.148C83.2227 27.6996 83.3313 28.2458 83.5424 28.7554C83.7535 29.265 84.0629 29.728 84.453 30.118" stroke="#2D3536" stroke-linecap="round" stroke-linejoin="round"/>
  <path d="M81.0098 11.458C82.1203 11.6382 83.1622 12.1131 84.0268 12.833C84.883 13.5918 85.5332 14.5551 85.9168 15.633" stroke="#2D3536" stroke-linecap="round" stroke-linejoin="round"/>
  <path d="M82.8867 8.39398C84.2582 8.6168 85.5447 9.20392 86.6117 10.094C87.6687 11.0291 88.4717 12.2167 88.9457 13.546" stroke="#2D3536" stroke-linecap="round" stroke-linejoin="round"/>
  <path d="M66.6537 23.1C66.5427 24.2197 66.7344 25.3486 67.2087 26.369C67.721 27.3906 68.4837 28.2658 69.4257 28.913" stroke="#2D3536" stroke-linecap="round" stroke-linejoin="round"/>
  <path d="M63.0087 24.042C62.8714 25.4244 63.108 26.8183 63.6937 28.078C64.3267 29.3393 65.2686 30.4198 66.4317 31.219" stroke="#2D3536" stroke-linecap="round" stroke-linejoin="round"/>
</svg>