<svg xmlns="http://www.w3.org/2000/svg" width="150" height="150" viewBox="0 0 150 150" fill="none">
  <path d="M15 75.4275C15 91.3405 21.3214 106.602 32.5736 117.854C43.8258 129.106 59.087 135.427 75 135.427C90.913 135.427 106.174 129.106 117.426 117.854C128.679 106.602 135 91.3405 135 75.4275C135 59.5145 128.679 44.2533 117.426 33.0011C106.174 21.7489 90.913 15.4275 75 15.4275C59.087 15.4275 43.8258 21.7489 32.5736 33.0011C21.3214 44.2533 15 59.5145 15 75.4275Z" fill="#E7F0EF"/>
  <path d="M37.0657 79.35L43.3102 64.3635C44.1322 62.391 45.5196 60.7058 47.2976 59.5204C49.0756 58.3349 51.1647 57.7022 53.3017 57.702H77.5507C80.566 57.7019 83.5218 58.5415 86.0869 60.1266C88.6519 61.7117 90.725 63.9797 92.0737 66.6765L98.4007 79.35L108.844 84.573C110.042 85.1716 111.05 86.0921 111.755 87.2313C112.46 88.3705 112.833 89.6835 112.834 91.023V106.41H17.2207V91.86C17.2202 90.8192 17.5199 89.8002 18.084 88.9255C18.648 88.0507 19.4524 87.3571 20.4007 86.928L37.0657 79.35Z" fill="white"/>
  <path d="M37.0657 79.35L43.3102 64.3635C44.1322 62.391 45.5196 60.7058 47.2976 59.5204C49.0756 58.3349 51.1647 57.7022 53.3017 57.702H77.5507C80.566 57.7019 83.5218 58.5415 86.0869 60.1266C88.6519 61.7117 90.725 63.9797 92.0737 66.6765L98.4007 79.35L108.844 84.573C110.042 85.1716 111.05 86.0921 111.755 87.2313C112.46 88.3705 112.833 89.6835 112.834 91.023V106.41H17.2207V91.86C17.2202 90.8192 17.5199 89.8002 18.084 88.9255C18.648 88.0507 19.4524 87.3571 20.4007 86.928L37.0657 79.35Z" stroke="#2D3536" stroke-linecap="round" stroke-linejoin="round"/>
  <path d="M17.0605 108.215H33.4585V100.998H17.0605C16.6242 101 16.2064 101.175 15.8986 101.484C15.5908 101.793 15.418 102.212 15.418 102.648V106.578C15.4215 107.012 15.5959 107.427 15.9033 107.733C16.2108 108.04 16.6265 108.213 17.0605 108.215Z" fill="#CDE0DE"/>
  <path d="M96.5996 108.214H112.996C113.432 108.213 113.85 108.038 114.158 107.729C114.466 107.419 114.639 107.001 114.639 106.564V102.634C114.639 102.198 114.466 101.78 114.158 101.47C113.85 101.161 113.432 100.986 112.996 100.984H96.5996V108.214Z" fill="#CDE0DE"/>
  <path d="M17.0605 108.215H33.4585V100.998H17.0605C16.6242 101 16.2064 101.175 15.8986 101.484C15.5908 101.793 15.418 102.212 15.418 102.648V106.578C15.4215 107.012 15.5959 107.427 15.9033 107.733C16.2108 108.04 16.6265 108.213 17.0605 108.215Z" stroke="#2D3536" stroke-linecap="round" stroke-linejoin="round"/>
  <path d="M96.5996 108.214H112.996C113.432 108.213 113.85 108.038 114.158 107.729C114.466 107.419 114.639 107.001 114.639 106.564V102.634C114.639 102.198 114.466 101.78 114.158 101.47C113.85 101.161 113.432 100.986 112.996 100.984H96.5996V108.214Z" stroke="#2D3536" stroke-linecap="round" stroke-linejoin="round"/>
  <path d="M15.418 114.935C15.418 115.76 20.5498 116.552 29.6847 117.135C38.8195 117.719 51.2089 118.047 64.1275 118.047C77.046 118.047 89.4355 117.719 98.5703 117.135C107.705 116.552 112.837 115.76 112.837 114.935C112.837 114.109 107.705 113.317 98.5703 112.734C89.4355 112.15 77.046 111.822 64.1275 111.822C51.2089 111.822 38.8195 112.15 29.6847 112.734C20.5498 113.317 15.418 114.109 15.418 114.935Z" fill="#CDE0DE"/>
  <path d="M107.424 100.998H112.836V93.7815H110.71C110.279 93.7813 109.851 93.8662 109.452 94.0313C109.054 94.1964 108.691 94.4384 108.386 94.7437C108.081 95.0489 107.839 95.4112 107.674 95.8101C107.509 96.2089 107.424 96.6363 107.424 97.068V100.998Z" fill="#CDE0DE" stroke="#2D3536" stroke-linecap="round" stroke-linejoin="round"/>
  <path d="M22.6327 100.998H17.2207V93.7815H19.3507C19.7823 93.7813 20.2098 93.8662 20.6086 94.0313C21.0075 94.1964 21.3698 94.4384 21.675 94.7437C21.9803 95.0489 22.2223 95.4112 22.3874 95.8101C22.5525 96.2089 22.6374 96.6363 22.6372 97.068L22.6327 100.998Z" fill="#CDE0DE" stroke="#2D3536" stroke-linecap="round" stroke-linejoin="round"/>
  <path d="M49.6934 100.908H58.7144C60.1496 100.908 61.5259 100.337 62.5408 99.3224C63.5556 98.3075 64.126 96.9312 64.1264 95.496V79.35" stroke="#2D3536" stroke-linecap="round" stroke-linejoin="round"/>
  <path d="M51.498 84.6705H58.7145V88.278H51.498V84.6705Z" fill="#CDE0DE" stroke="#2D3536" stroke-linecap="round" stroke-linejoin="round"/>
  <path d="M28.0449 104.605C28.0449 107.476 29.1853 110.229 31.2152 112.259C33.2451 114.289 35.9982 115.429 38.8689 115.429C41.7396 115.429 44.4928 114.289 46.5226 112.259C48.5525 110.229 49.6929 107.476 49.6929 104.605C49.6929 101.735 48.5525 98.9817 46.5226 96.9518C44.4928 94.9219 41.7396 93.7815 38.8689 93.7815C35.9982 93.7815 33.2451 94.9219 31.2152 96.9518C29.1853 98.9817 28.0449 101.735 28.0449 104.605Z" fill="#CDE0DE"/>
  <path d="M28.0449 104.605C28.0449 107.476 29.1853 110.229 31.2152 112.259C33.2451 114.289 35.9982 115.429 38.8689 115.429C41.7396 115.429 44.4928 114.289 46.5226 112.259C48.5525 110.229 49.6929 107.476 49.6929 104.605C49.6929 101.735 48.5525 98.9817 46.5226 96.9518C44.4928 94.9219 41.7396 93.7815 38.8689 93.7815C35.9982 93.7815 33.2451 94.9219 31.2152 96.9518C29.1853 98.9817 28.0449 101.735 28.0449 104.605Z" stroke="#2D3536" stroke-linecap="round" stroke-linejoin="round"/>
  <path d="M35.2617 104.606C35.2617 105.562 35.6418 106.48 36.3183 107.156C36.9949 107.833 37.9125 108.213 38.8692 108.213C39.826 108.213 40.7436 107.833 41.4201 107.156C42.0966 106.48 42.4767 105.562 42.4767 104.606C42.4767 103.649 42.0966 102.731 41.4201 102.055C40.7436 101.378 39.826 100.998 38.8692 100.998C37.9125 100.998 36.9949 101.378 36.3183 102.055C35.6418 102.731 35.2617 103.649 35.2617 104.606Z" fill="white"/>
  <path d="M35.2617 104.606C35.2617 105.562 35.6418 106.48 36.3183 107.156C36.9949 107.833 37.9125 108.213 38.8692 108.213C39.826 108.213 40.7436 107.833 41.4201 107.156C42.0966 106.48 42.4767 105.562 42.4767 104.606C42.4767 103.649 42.0966 102.731 41.4201 102.055C40.7436 101.378 39.826 100.998 38.8692 100.998C37.9125 100.998 36.9949 101.378 36.3183 102.055C35.6418 102.731 35.2617 103.649 35.2617 104.606Z" stroke="#2D3536" stroke-linecap="round" stroke-linejoin="round"/>
  <path d="M83.9707 104.605C83.9707 107.476 85.1111 110.229 87.141 112.259C89.1709 114.289 91.924 115.429 94.7947 115.429C97.6654 115.429 100.419 114.289 102.448 112.259C104.478 110.229 105.619 107.476 105.619 104.605C105.619 101.735 104.478 98.9817 102.448 96.9518C100.419 94.9219 97.6654 93.7815 94.7947 93.7815C91.924 93.7815 89.1709 94.9219 87.141 96.9518C85.1111 98.9817 83.9707 101.735 83.9707 104.605Z" fill="#CDE0DE"/>
  <path d="M83.9707 104.605C83.9707 107.476 85.1111 110.229 87.141 112.259C89.1709 114.289 91.924 115.429 94.7947 115.429C97.6654 115.429 100.419 114.289 102.448 112.259C104.478 110.229 105.619 107.476 105.619 104.605C105.619 101.735 104.478 98.9817 102.448 96.9518C100.419 94.9219 97.6654 93.7815 94.7947 93.7815C91.924 93.7815 89.1709 94.9219 87.141 96.9518C85.1111 98.9817 83.9707 101.735 83.9707 104.605Z" stroke="#2D3536" stroke-linecap="round" stroke-linejoin="round"/>
  <path d="M91.1875 104.606C91.1875 105.562 91.5676 106.48 92.2441 107.156C92.9206 107.833 93.8382 108.213 94.795 108.213C95.7518 108.213 96.6693 107.833 97.3459 107.156C98.0224 106.48 98.4025 105.562 98.4025 104.606C98.4025 103.649 98.0224 102.731 97.3459 102.055C96.6693 101.378 95.7518 100.998 94.795 100.998C93.8382 100.998 92.9206 101.378 92.2441 102.055C91.5676 102.731 91.1875 103.649 91.1875 104.606Z" fill="white"/>
  <path d="M91.1875 104.606C91.1875 105.562 91.5676 106.48 92.2441 107.156C92.9206 107.833 93.8382 108.213 94.795 108.213C95.7518 108.213 96.6693 107.833 97.3459 107.156C98.0224 106.48 98.4025 105.562 98.4025 104.606C98.4025 103.649 98.0224 102.731 97.3459 102.055C96.6693 101.378 95.7518 100.998 94.795 100.998C93.8382 100.998 92.9206 101.378 92.2441 102.055C91.5676 102.731 91.1875 103.649 91.1875 104.606Z" fill="white" stroke="#2D3536" stroke-linecap="round" stroke-linejoin="round"/>
  <path d="M69.5391 79.35H88.7646C89.027 79.3502 89.2853 79.2848 89.5159 79.1597C89.7466 79.0346 89.9423 78.8538 90.0853 78.6338C90.2282 78.4137 90.3139 78.1614 90.3345 77.8998C90.355 77.6382 90.3099 77.3756 90.2031 77.136L85.4031 66.336C84.9775 65.3786 84.2833 64.5654 83.4047 63.9948C82.526 63.4242 81.5007 63.1208 80.4531 63.1215H69.5391V79.35Z" fill="#CDE0DE"/>
  <path d="M69.5391 79.35H88.7646C89.027 79.3502 89.2853 79.2848 89.5159 79.1597C89.7466 79.0346 89.9423 78.8538 90.0853 78.6338C90.2282 78.4137 90.3139 78.1614 90.3345 77.8998C90.3551 77.6382 90.3099 77.3756 90.2031 77.136L85.4031 66.336C84.9775 65.3786 84.2833 64.5654 83.4047 63.9948C82.526 63.4242 81.5007 63.1208 80.4531 63.1215H69.5391V79.35Z" stroke="#2D3536" stroke-linecap="round" stroke-linejoin="round"/>
  <path d="M64.126 79.35H44.9005C44.638 79.3504 44.3795 79.2852 44.1486 79.1602C43.9177 79.0352 43.7218 78.8545 43.5787 78.6344C43.4355 78.4143 43.3497 78.1619 43.3291 77.9002C43.3084 77.6385 43.3536 77.3758 43.4605 77.136L48.2605 66.336C48.6859 65.3785 49.38 64.5651 50.2587 63.9945C51.1374 63.4239 52.1628 63.1206 53.2105 63.1215H64.126V79.35Z" fill="#CDE0DE"/>
  <path d="M64.126 79.35H44.9005C44.638 79.3504 44.3795 79.2852 44.1486 79.1602C43.9177 79.0352 43.7218 78.8545 43.5787 78.6344C43.4355 78.4143 43.3497 78.1619 43.3291 77.9002C43.3084 77.6385 43.3536 77.3758 43.4605 77.136L48.2605 66.336C48.6859 65.3785 49.38 64.5651 50.2587 63.9945C51.1374 63.4239 52.1628 63.1206 53.2105 63.1215H64.126V79.35Z" stroke="#2D3536" stroke-linecap="round" stroke-linejoin="round"/>
  <path d="M72.793 45.63C72.793 49.7085 73.5963 53.7471 75.1571 57.5152C76.7179 61.2833 79.0055 64.707 81.8895 67.591C84.7735 70.4749 88.1972 72.7626 91.9653 74.3234C95.7333 75.8842 99.7719 76.6875 103.85 76.6875C107.929 76.6875 111.968 75.8842 115.736 74.3234C119.504 72.7626 122.927 70.4749 125.811 67.591C128.695 64.707 130.983 61.2833 132.544 57.5152C134.105 53.7471 134.908 49.7085 134.908 45.63C134.908 41.5515 134.105 37.5129 132.544 33.7448C130.983 29.9768 128.695 26.553 125.811 23.669C122.927 20.7851 119.504 18.4974 115.736 16.9366C111.968 15.3758 107.929 14.5725 103.85 14.5725C99.7719 14.5725 95.7333 15.3758 91.9653 16.9366C88.1972 18.4974 84.7735 20.7851 81.8895 23.669C79.0055 26.553 76.7179 29.9768 75.1571 33.7448C73.5963 37.5129 72.793 41.5515 72.793 45.63Z" fill="#CDE0DE"/>
  <path d="M72.793 45.63C72.793 49.7085 73.5963 53.7471 75.1571 57.5152C76.7179 61.2833 79.0055 64.707 81.8895 67.591C84.7735 70.4749 88.1972 72.7626 91.9653 74.3234C95.7333 75.8842 99.7719 76.6875 103.85 76.6875C107.929 76.6875 111.968 75.8842 115.736 74.3234C119.504 72.7626 122.927 70.4749 125.811 67.591C128.695 64.707 130.983 61.2833 132.544 57.5152C134.105 53.7471 134.908 49.7085 134.908 45.63C134.908 41.5515 134.105 37.5129 132.544 33.7448C130.983 29.9768 128.695 26.553 125.811 23.669C122.927 20.7851 119.504 18.4974 115.736 16.9366C111.968 15.3758 107.929 14.5725 103.85 14.5725C99.7719 14.5725 95.7333 15.3758 91.9653 16.9366C88.1972 18.4974 84.7735 20.7851 81.8895 23.669C79.0055 26.553 76.7179 29.9768 75.1571 33.7448C73.5963 37.5129 72.793 41.5515 72.793 45.63Z" stroke="#2D3536" stroke-linecap="round" stroke-linejoin="round"/>
  <path d="M129.73 45.63C129.732 41.17 128.581 36.7852 126.388 32.9013C124.195 29.0175 121.036 25.7665 117.216 23.4639C113.396 21.1613 109.046 19.8853 104.588 19.7598C100.13 19.6342 95.7147 20.6635 91.7715 22.7475V68.511C95.7145 70.5959 100.13 71.6259 104.588 71.5009C109.047 71.3758 113.397 70.1001 117.217 67.7975C121.037 65.4949 124.197 62.2437 126.389 58.3595C128.582 54.4754 129.733 50.0903 129.73 45.63Z" fill="white"/>
  <path d="M108.15 58.068H105.277C104.661 58.068 104.377 58.497 104.377 59.0775V65.463C104.374 65.5808 104.395 65.698 104.44 65.8071C104.484 65.9163 104.551 66.015 104.635 66.0969C104.72 66.1789 104.821 66.2424 104.931 66.2833C105.042 66.3242 105.16 66.3416 105.277 66.3345H108.277C108.385 66.3399 108.493 66.323 108.594 66.285C108.695 66.2469 108.787 66.1885 108.864 66.1134C108.941 66.0383 109.002 65.948 109.043 65.8482C109.084 65.7485 109.104 65.6413 109.102 65.5335C109.107 65.425 109.088 65.3167 109.048 65.2158C109.008 65.1149 108.947 65.0236 108.869 64.9479C108.791 64.8722 108.698 64.8137 108.596 64.7763C108.494 64.739 108.386 64.7235 108.277 64.731H106.114V62.967H108.018C108.127 62.9735 108.236 62.9577 108.339 62.9203C108.442 62.883 108.536 62.825 108.615 62.75C108.694 62.6749 108.758 62.5844 108.801 62.4839C108.844 62.3835 108.866 62.2753 108.865 62.166C108.868 62.0561 108.847 61.947 108.805 61.8456C108.762 61.7442 108.699 61.6528 108.619 61.5773C108.54 61.5018 108.445 61.4439 108.341 61.4074C108.237 61.3708 108.127 61.3564 108.018 61.365H106.114V59.67H108.15C108.258 59.6754 108.365 59.6585 108.466 59.6203C108.568 59.5822 108.66 59.5237 108.737 59.4484C108.814 59.3731 108.876 59.2826 108.916 59.1827C108.957 59.0827 108.977 58.9754 108.975 58.8675C108.979 58.7592 108.96 58.6513 108.92 58.5508C108.879 58.4502 108.818 58.3593 108.74 58.2839C108.663 58.2085 108.57 58.1503 108.468 58.1131C108.366 58.0759 108.258 58.0605 108.15 58.068Z" fill="#2D3536"/>
  <path d="M129.73 45.63C129.732 41.17 128.581 36.7852 126.388 32.9013C124.195 29.0175 121.036 25.7665 117.216 23.4639C113.396 21.1613 109.046 19.8853 104.588 19.7598C100.13 19.6342 95.7147 20.6635 91.7715 22.7475V68.511C95.7145 70.5959 100.13 71.6259 104.588 71.5009C109.047 71.3758 113.397 70.1001 117.217 67.7975C121.037 65.4949 124.197 62.2437 126.389 58.3595C128.582 54.4754 129.733 50.0903 129.73 45.63Z" stroke="#2D3536" stroke-linecap="round" stroke-linejoin="round"/>
  <path d="M108.25 23.5605H105.277C105.158 23.5563 105.039 23.5767 104.928 23.6204C104.817 23.6642 104.716 23.7303 104.632 23.8148C104.547 23.8992 104.481 24.0001 104.437 24.1112C104.394 24.2222 104.373 24.3412 104.377 24.4605V30.9855C104.377 31.2166 104.469 31.4383 104.633 31.6017C104.796 31.7652 105.018 31.857 105.249 31.857C105.48 31.857 105.702 31.7652 105.865 31.6017C106.029 31.4383 106.12 31.2166 106.12 30.9855V28.4595H107.92C108.03 28.4655 108.139 28.4488 108.242 28.4104C108.345 28.372 108.438 28.3127 108.517 28.2363C108.595 28.1599 108.657 28.068 108.698 27.9665C108.739 27.865 108.759 27.756 108.756 27.6465C108.758 27.5384 108.737 27.4313 108.695 27.3318C108.652 27.2323 108.59 27.1426 108.512 27.0684C108.433 26.9942 108.34 26.9372 108.238 26.9009C108.136 26.8645 108.028 26.8498 107.92 26.8575H106.12V25.1625H108.256C108.469 25.1625 108.673 25.0781 108.823 24.9279C108.973 24.7776 109.057 24.5739 109.057 24.3615C109.057 24.149 108.973 23.9453 108.823 23.7951C108.673 23.6449 108.469 23.5605 108.256 23.5605H108.25Z" fill="#2D3536"/>
  <path d="M116.273 29.0865C116.119 28.9707 115.943 28.8878 115.756 28.8431C115.568 28.7985 115.373 28.7929 115.184 28.8268C114.994 28.8607 114.813 28.9334 114.653 29.0403C114.492 29.1472 114.356 29.2859 114.251 29.448L110.489 35.298C110.389 35.4555 110.322 35.6314 110.291 35.8153C110.26 35.9992 110.266 36.1875 110.309 36.3691C110.351 36.5507 110.43 36.7219 110.539 36.8728C110.649 37.0237 110.787 37.1513 110.947 37.248C112.658 38.2716 114.126 39.6543 115.25 41.3006C116.375 42.9469 117.129 44.8176 117.46 46.7835C117.791 48.7495 117.692 50.7639 117.169 52.6878C116.646 54.6117 115.712 56.3992 114.431 57.927C114.228 58.1687 114.113 58.4722 114.104 58.7879C114.095 59.1035 114.194 59.4129 114.383 59.6655L115.387 61.0035C115.502 61.1578 115.648 61.2867 115.816 61.382C115.983 61.4773 116.169 61.5369 116.36 61.5572C116.552 61.5775 116.746 61.5579 116.93 61.4998C117.113 61.4417 117.283 61.3463 117.428 61.2195C119.76 59.1989 121.608 56.6817 122.839 53.8528C124.07 51.0239 124.651 47.9552 124.54 44.8722C124.43 41.7891 123.63 38.7701 122.199 36.0368C120.768 33.3036 118.744 30.9256 116.273 29.0775V29.0865Z" fill="#CDE0DE" stroke="#2D3536" stroke-linecap="round" stroke-linejoin="round"/>
  <path d="M113.398 39.129L121.621 35.0175" stroke="#2D3536" stroke-linecap="round" stroke-linejoin="round"/>
  <path d="M117.217 45.63H124.555" stroke="#2D3536" stroke-linecap="round" stroke-linejoin="round"/>
  <path d="M116.675 54.186C116.13 55.5479 115.37 56.8138 114.425 57.936C114.222 58.1782 114.107 58.4818 114.098 58.7977C114.089 59.1136 114.188 59.4231 114.377 59.676L115.381 61.014C115.496 61.1684 115.642 61.2972 115.81 61.3925C115.977 61.4878 116.163 61.5474 116.354 61.5677C116.546 61.588 116.74 61.5685 116.923 61.5104C117.107 61.4523 117.277 61.3568 117.422 61.23C118.858 59.9814 120.116 58.5427 121.162 56.9535L116.675 54.186Z" fill="white" stroke="#2D3536" stroke-linecap="round" stroke-linejoin="round"/>
  <path d="M98.6738 45.63L107.3 52.5315" stroke="#2D3536" stroke-linecap="round" stroke-linejoin="round"/>
  <path d="M95.2207 45.63C95.2207 46.5454 95.5843 47.4233 96.2316 48.0705C96.8789 48.7178 97.7568 49.0815 98.6722 49.0815C99.5876 49.0815 100.465 48.7178 101.113 48.0705C101.76 47.4233 102.124 46.5454 102.124 45.63C102.124 44.7146 101.76 43.8367 101.113 43.1894C100.465 42.5421 99.5876 42.1785 98.6722 42.1785C97.7568 42.1785 96.8789 42.5421 96.2316 43.1894C95.5843 43.8367 95.2207 44.7146 95.2207 45.63Z" fill="#CDE0DE" stroke="#2D3536" stroke-linecap="round" stroke-linejoin="round"/>
</svg>