<svg xmlns="http://www.w3.org/2000/svg" width="1200" height="444" viewBox="0 0 1200 444" fill="none">
  <g opacity="0.35">
    <path d="M750.857 -198H1184.99C1184.99 -198 694.086 66.2703 717.495 303.5C738.089 512.204 1169.57 449.374 1198 663.5C1232.77 925.484 670.001 1122.5 455.5 1217.5C284.061 1293.43 568.501 1673 512.001 1912.5C455.5 2152 763.789 2294.55 768.5 2498.5C776.96 2864.7 550.499 3252 550.499 3252H35.5007C92.5009 3065.5 412.5 2741 252.501 2498.5C92.5009 2256 35.4999 2126.5 92.5009 1912.5C149.502 1698.5 -63.7131 1475.44 21.0012 1217.5C133.75 874.2 968.44 996.922 774.497 680.5C717.495 587.5 414.319 538.171 390.358 303.5C363.776 43.1491 750.857 -198 750.857 -198Z" fill="#FFECDD"/>
    <path d="M36.1772 3251.5C50.4924 3205.08 81.0286 3150.11 116.385 3089.94C122.885 3078.88 129.548 3067.64 136.301 3056.25C166.441 3005.42 198.396 2951.53 225.823 2896.47C292.955 2761.71 333.081 2619.72 252.918 2498.22C172.918 2376.97 118.706 2284.03 91.604 2194.67C64.5099 2105.33 64.5037 2019.55 92.9841 1912.63C119.472 1813.18 87.6978 1711.8 54.5592 1606.06C51.9842 1597.84 49.4009 1589.6 46.8361 1581.33C11.2462 1466.57 -20.8264 1346.46 21.4763 1217.66C49.5989 1132.03 122.754 1075.41 213.782 1033.72C297.752 995.255 396.841 969.535 489.632 945.45C497.432 943.426 505.187 941.413 512.885 939.405C562.515 926.459 609.767 913.718 651.207 899.417C692.643 885.117 728.302 869.246 754.732 850.025C781.168 830.799 798.41 808.192 802.921 780.422C807.431 752.661 799.2 719.846 774.923 680.239C760.598 656.867 730.851 636.291 694.048 614.928C679.961 606.75 664.841 598.458 649.136 589.845C623.752 575.923 596.84 561.164 570.301 544.702C484.419 491.431 402.811 420.543 390.855 303.449C384.223 238.494 403.39 174.709 435.91 115.546C468.429 56.3827 514.287 1.86906 560.991 -44.5269C607.693 -90.9209 655.228 -129.185 691.089 -155.851C709.019 -169.184 724.029 -179.616 734.556 -186.715C739.819 -190.264 743.962 -192.98 746.788 -194.808C748.201 -195.722 749.285 -196.415 750.015 -196.878C750.38 -197.11 750.657 -197.284 750.842 -197.401L751 -197.5H1183.03C1182.11 -196.999 1180.85 -196.301 1179.24 -195.411C1175.65 -193.417 1170.39 -190.461 1163.7 -186.615C1150.31 -178.923 1131.22 -167.67 1108.39 -153.425C1062.72 -124.937 1002.07 -84.4782 942.154 -36.6017C882.237 11.2721 823.031 66.5776 780.263 124.763C737.502 182.941 711.128 244.063 716.998 303.549C722.167 355.934 753.131 391.258 797.003 418.112C840.536 444.758 896.846 463.106 953.41 481.537L954.654 481.942C1011.67 500.52 1068.85 519.245 1113.56 546.691C1158.25 574.124 1190.42 610.233 1197.5 663.566C1206.17 728.86 1177.61 790.155 1126.44 846.893C1075.28 903.632 1001.54 955.758 919.977 1002.69C796.555 1073.7 655.31 1132.76 547.395 1177.89C512.679 1192.4 481.412 1205.48 455.298 1217.04C433.764 1226.58 419.367 1240.9 410.573 1259.12C401.786 1277.33 398.609 1299.41 399.448 1324.46C401.125 1374.55 418.866 1436.66 440.172 1503.81C444.225 1516.59 448.408 1529.55 452.635 1542.64C470.633 1598.4 489.426 1656.63 502.412 1713.66C518.449 1784.08 525.613 1852.62 511.514 1912.39C483.204 2032.39 546.308 2128.07 616.901 2219.14C624.851 2229.39 632.895 2239.59 640.916 2249.75C668.526 2284.75 695.854 2319.38 718.066 2354.84C746.724 2400.59 766.826 2447.65 768.001 2498.51C772.228 2681.52 717.754 2869.82 662.206 3012.39C634.434 3083.68 606.398 3143.52 585.305 3185.54C574.758 3206.55 565.948 3223.1 559.775 3234.4C556.688 3240.05 554.261 3244.39 552.606 3247.31C552.346 3247.77 552.106 3248.2 551.885 3248.58C551.4 3249.44 551.009 3250.12 550.716 3250.63C550.502 3251 550.34 3251.28 550.231 3251.47L550.212 3251.5H36.1772Z" stroke="#2D3536" stroke-opacity="0.2"/>
  </g>
</svg>