<svg width="24" height="24" viewBox="0 0 24 24" fill="none" xmlns="http://www.w3.org/2000/svg">
<path d="M16 22V20C16 18.9391 15.5786 17.9217 14.8284 17.1716C14.0783 16.4214 13.0609 16 12 16H5C3.93913 16 2.92172 16.4214 2.17157 17.1716C1.42143 17.9217 1 18.9391 1 20V22" stroke="#5D9B96" stroke-width="1.5" stroke-linecap="round" stroke-linejoin="round"/>
<path d="M8.5 12C10.7091 12 12.5 10.2091 12.5 8C12.5 5.79086 10.7091 4 8.5 4C6.29086 4 4.5 5.79086 4.5 8C4.5 10.2091 6.29086 12 8.5 12Z" stroke="#5D9B96" stroke-width="1.5" stroke-linecap="round" stroke-linejoin="round"/>
<path d="M17 12L19 14L23 10" stroke="#5D9B96" stroke-width="1.5" stroke-linecap="round" stroke-linejoin="round"/>
</svg>
