<svg width="24" height="24" viewBox="0 0 24 24" fill="none" xmlns="http://www.w3.org/2000/svg">
<path d="M17 22V20C17 18.9391 16.5786 17.9217 15.8284 17.1716C15.0783 16.4214 14.0609 16 13 16H5C3.93913 16 2.92172 16.4214 2.17157 17.1716C1.42143 17.9217 1 18.9391 1 20V22" stroke="#4BA7A8" stroke-width="1.5" stroke-linecap="round" stroke-linejoin="round"/>
<path d="M9 12C11.2091 12 13 10.2091 13 8C13 5.79086 11.2091 4 9 4C6.79086 4 5 5.79086 5 8C5 10.2091 6.79086 12 9 12Z" stroke="#4BA7A8" stroke-width="1.5" stroke-linecap="round" stroke-linejoin="round"/>
<path d="M23 21.9999V19.9999C22.9993 19.1136 22.7044 18.2527 22.1614 17.5522C21.6184 16.8517 20.8581 16.3515 20 16.1299" stroke="#4BA7A8" stroke-width="1.5" stroke-linecap="round" stroke-linejoin="round"/>
<path d="M16 4.12988C16.8604 4.35018 17.623 4.85058 18.1676 5.55219C18.7122 6.2538 19.0078 7.11671 19.0078 8.00488C19.0078 8.89305 18.7122 9.75596 18.1676 10.4576C17.623 11.1592 16.8604 11.6596 16 11.8799" stroke="#4BA7A8" stroke-width="1.5" stroke-linecap="round" stroke-linejoin="round"/>
</svg>
